<?xml version="1.0" encoding="UTF-8"?>
<svg width="1976" height="1636" version="1.1" xmlns="http://www.w3.org/2000/svg" xmlns:cc="http://creativecommons.org/ns#" xmlns:dc="http://purl.org/dc/elements/1.1/" xmlns:rdf="http://www.w3.org/1999/02/22-rdf-syntax-ns#">
 <metadata>
  <rdf:RDF>
   <cc:Work rdf:about="">
    <dc:format>image/svg+xml</dc:format>
    <dc:type rdf:resource="http://purl.org/dc/dcmitype/StillImage"/>
    <dc:title/>
   </cc:Work>
  </rdf:RDF>
 </metadata>
 <svg width="1976" height="1636" version="1.1"/>
 <svg width="1976" height="1636" version="1.0" viewBox="0 0 1976 1636"/>
 <svg width="1976" height="1636" version="1.0" viewBox="0 0 1976 1636">
  <g transform="matrix(.1 0 0 -.1 0 1636)" fill="#dededf">
   <path d="M2063 16225c-28-19-89-117-151-241-73-146-95-241-70-306 11-29 84-95 134-121 17-9 37-23 45-33 20-25 303-217 419-285 108-64 402-263 407-276 3-8 19-21 35-29 46-24 177-153 216-214 49-76 69-126 75-187 4-35 14-64 31-86 14-19 26-38 26-44 0-5 12-16 27-24 36-19 139-118 135-131-1-5 1-7 6-4s24-5 43-18c31-21 70-41 201-105 25-13 54-30 65-40 10-9 50-43 88-75 144-121 194-169 188-179-3-6-2-7 4-4 13 8 76-57 66-68-5-4-3-5 3-2 15 9 146-112 137-126-3-5-1-7 5-3 10 6 52-38 52-55 0-28-77 21-230 146-41 34-147 119-235 188-88 70-177 141-198 158-60 49-179 119-202 119s-79-52-74-68c2-6 64-72 137-148 72-75 132-143 132-151 0-7 4-13 10-13 11 0 81-70 174-175 38-44 82-93 97-110 58-63 131-159 150-196 10-22 23-39 28-39 4 0 38-38 74-84s97-116 135-157c103-112 276-329 296-373 27-58 27-95-1-143-19-33-25-58-26-110-1-67 0-69 52-138 29-38 107-124 174-190 194-192 282-285 268-285-7 0-10-4-7-9s-5-12-19-15c-14-4-24-12-22-18 7-39-142 10-187 61-38 44-229 221-406 376-30 27-60 54-66 59-6 6-26 22-44 36-33 25-68 53-168 138-28 23-55 42-61 42-5 0-11 3-13 8-1 4-43 38-93 76-49 38-96 78-103 88s-18 18-24 18-26 11-45 26c-42 32-95 54-129 54-25 0-180-63-198-80-5-6-4-15 4-25s9-15 1-15c-6 0-3-9 6-20 10-11 23-20 30-20s20-16 29-35 21-35 27-35c5 0 2 10-9 23-19 22-19 22 3 3 12-10 21-23 20-30-1-6 4-10 10-9 7 2 12-3 10-10-1-6 3-11 10-10 6 1 17-5 25-14 11-14 11-16-1-8-10 6-12 4-7-4 5-7 11-10 14-7 8 8 33-15 27-24-3-5 0-12 6-16 8-4 9-3 5 4-15 24 11 11 42-21 26-27 30-36 20-47-11-12-10-12 5 0 15 11 21 10 47-15 16-15 27-31 25-35-3-4 3-14 12-21 9-8 17-12 19-9s49-38 104-90c56-52 108-99 116-103 8-5 11-14 8-20-4-7-3-9 1-4 11 9 66-43 59-55-3-5 0-7 8-6 7 2 12-3 10-10-1-8 2-11 6-8 12 7 44-28 35-38-5-4-1-6 7-4s15-4 15-12 6-14 12-13 40-29 77-66c46-48 64-74 60-85-8-20-31-15-26 5 2 8 0 11-4 7-8-9-55 26-169 126-171 149-234 210-228 220 3 6 3 8-2 4-9-8-121 92-117 104 1 5-1 7-6 6-7-3-76 65-243 238-107 111-141 153-133 165 3 5 2 8-3 7-13-5-93 87-93 107 0 12 5 15 18 10 51-20 74-17 157 20 100 45 122 69 100 112-8 15-15 24-15 19 0-4-17 4-37 20l-36 28-43-50-43-49-31 70c-53 119-63 133-128 187-35 29-67 52-70 52-4-1-27 12-52 29s-46 29-47 27c-1-3-20 13-43 35-22 21-40 35-40 31 0-5-17 7-39 25-21 19-60 52-87 74-26 22-56 49-66 59-10 11-18 16-18 12 0-5-19 9-43 30-23 22-55 48-71 59-68 48-155 128-149 138 3 5 2 7-4 4-5-3-31 17-59 45-63 64-85 75-169 83-68 6-71 6-102-25-48-46-50-68-11-131 39-65 59-83 164-154 83-56 235-205 256-250 6-14 15-25 19-25s10-8 13-17c3-10 26-40 50-67 23-27 55-78 71-113 28-64 28-64 6-84-11-11-21-16-21-10 0 5-10 12-22 15-13 3-49 30-80 60-32 30-58 52-58 49 0-2-22 11-49 31-64 47-90 46-146-5-25-23-45-47-45-53 0-14 64-80 121-126 91-72 259-260 259-289 0-21-45-10-84 19-47 35-57 37-81 10-21-23-15-55 15-88 11-12 19-22 17-22s24-29 57-63c34-35 88-93 121-128 33-36 84-91 114-123 110-119 130-145 124-166-6-23-21-25-48-6-11 7-31 17-45 21-31 10-128 75-154 104-11 11-25 21-31 21-7 0-15 7-19 15-3 8-21 22-40 31-34 17-35 17-60-11-14-15-26-36-26-46 0-23-21-69-31-69-5 0-14 7-21 15-7 9-31 35-52 58-22 23-48 61-58 84s-23 45-28 48c-6 4-7 12-4 18 4 7 4 9-1 5-4-4-15 0-24 10-40 43-114 94-187 128-87 40-135 74-206 146-27 27-51 48-56 48-4 0-24 15-43 33-20 17-60 52-90 77s-73 65-96 89c-24 24-43 41-43 37 0-6-10 2-76 61-13 12-24 19-24 16 0-4-13 8-28 25-16 18-32 29-35 25-4-3-7 0-7 7s-3 10-6 7c-4-4-15 3-25 14-9 11-20 20-24 19s-19 9-33 22c-53 46-128 105-182 143-70 49-129 55-144 14-13-39-1-72 52-136 26-32 60-76 77-98 16-22 36-45 44-51s11-16 7-23c-4-6-3-10 2-9 12 4 122-121 122-137 0-7 16-30 36-51 20-22 63-74 95-116 33-43 75-94 94-115s35-41 35-45 21-29 46-55c83-86 149-165 146-175-1-5 2-7 7-4 10 7 151-141 151-159 0-7 9-20 21-31 12-10 34-44 49-74 26-51 27-57 13-83-14-28-14-28-43-7-17 12-30 26-30 31 0 6-4 8-9 5-4-3-27 13-50 35-22 22-41 38-41 36 0-3-22 16-48 42-27 25-97 91-156 146s-127 118-150 140-55 51-72 65c-16 14-61 52-99 85-39 34-86 73-105 87s-51 42-71 61c-20 18-61 53-93 77-31 23-54 45-51 48 2 3-5 14-18 24-55 47-155 139-223 206-41 41-74 71-74 67 0-6-6-1-53 40-39 34-101 65-132 65-14 0-43-11-65-25-30-19-53-25-94-25-81 0-101-28-147-215-14-56-88-145-120-145-20 0-69-58-69-83 0-32 34-86 59-96 29-10 152-29 246-37 33-3 62-10 66-15 3-6 5-31 4-57s-2-68-3-94c-3-64-26-85-98-87-66-1-117-21-138-54-13-19-34-130-36-184 0-9-17-13-49-13-83 0-82 2-80-118 1-57 4-99 8-93 6 9 11 8 21-4 27-32 88-55 147-55 49 0 76-9 173-55 63-30 128-65 145-78 44-35 40-80-13-155-23-33-47-72-53-88s-13-96-15-179c-2-82-6-160-9-172-11-49 137-153 210-147 35 2 114-33 129-58 14-23-15-54-60-62-45-9-64-40-65-109-2-70 35-151 93-208 42-40 42-40 128-59 98-22 137-73 348-457 55-102 105-168 241-317 154-171 161-179 161-198 0-9-14-59-31-110-30-89-31-97-22-180 7-73 6-90-6-100-13-11-26-3-81 53-36 36-96 92-135 124-38 33-116 100-171 150-119 106-154 135-154 129 0-2-16 12-36 31s-39 33-44 30c-4-2-19 6-33 19s-28 22-30 20-20 7-40 20c-19 13-64 35-99 47-35 13-65 27-66 31-2 5-8 6-13 2-5-3-9 0-9 5 0 6-6 11-12 12-7 0-33 25-58 55-52 64-167 156-189 152-8-2-22-15-31-31-13-24-13-30 0-51 44-72 156-220 214-283 36-39 66-74 66-78s9-20 20-35c18-25 20-43 19-132-1-102-1-102 37-136 22-19 58-52 81-73s58-45 78-54c42-21 86-70 79-89-4-10 9-21 38-34 28-12 96-70 188-159l144-140-41-64c-58-88-70-140-53-216 53-232 87-320 164-418 86-110 123-169 183-290 66-135 191-330 268-420 29-33 60-73 71-90 10-16 29-38 41-48 13-10 23-22 23-27 0-15 197-331 227-366 61-68 110-133 164-219s60-101 53-128l-9-30-68 47c-37 25-70 46-73 46-8 0-98 64-102 73-2 4-9 7-15 7-17 1-105 82-109 100-2 8-15 28-30 45-16 16-28 34-28 38 0 5-6 15-12 22-31 34-36 43-31 49 4 3 1 6-5 6-7 0-12 5-12 11 0 7-8 17-17 24-12 9-16 25-14 64 1 35-4 64-19 93-33 68-52 102-66 116-7 7-21 26-31 42-9 17-21 30-26 30-4 0-5 5-2 10 3 6-1 13-10 16-9 4-23 21-32 38s-19 33-22 36c-21 16-50 64-44 74 3 6 3 8-2 4-4-4-33 29-64 74-72 106-144 184-177 192-35 9-63-17-108-103-51-97-129-284-155-371-43-139-14-241 121-435 238-343 314-437 469-581 24-22 73-90 109-150 37-63 88-132 120-164 31-30 67-77 80-104 36-69 86-121 155-159 73-40 97-74 113-162 17-91 35-122 141-245 98-115 201-258 219-305 6-16 18-67 26-111 16-89 48-176 108-297 21-42 58-127 83-187 59-144 107-239 167-327 75-112 99-121 157-59 36 38 68 35 80-10 8-29 5-52-20-132-16-53-29-108-29-122 0-15 24-63 56-110 31-47 79-131 106-186 27-56 56-108 66-116 30-26 82-38 137-32 106 13 146-47 111-166-37-123-14-191 81-239 93-47 129-91 202-245 29-62 59-107 100-150 33-33 76-89 96-124 46-80 81-102 159-102 60 0 60 0 129-72 38-40 88-97 111-128 31-42 56-63 106-87 36-18 73-41 82-53s29-59 43-105c27-87 77-180 123-229 15-15 77-67 137-114 61-47 119-95 130-105 53-51 329-289 395-342 125-100 132-105 233-209 58-59 96-105 92-113-2-8 0-11 5-8 10 6 72-84 95-139 7-17 39-56 70-85 55-52 58-53 101-47 54 7 102 31 219 109 173 115 198 146 190 242-3 47-13 77-35 115-16 28-30 55-30 60 0 4-4 10-8 12-12 5-92 129-92 143 0 6 6 25 14 41s17 53 21 81c8 59 14 66 48 57 19-4 28-16 37-50 17-61 29-68 90-55 67 14 76 14 94-5 12-12 14-28 9-74-6-65 15-127 56-164 12-11 47-55 79-99 42-58 81-97 147-147 49-37 125-100 167-139 43-39 89-73 103-77 44-11 132 12 230 59 28 13 86 36 130 50 44 15 116 38 160 53s98 36 120 47 99 45 170 77c146 64 156 76 108 130-29 32-29 32-61 16-17-9-57-34-88-56-32-22-65-40-75-40s-20-4-23-9-20-11-37-13c-27-4-40 2-84 42-45 40-60 48-107 54-33 4-64 15-76 26-11 10-23 16-26 13-3-4-6 0-6 7 0 16-36 48-75 65-38 17-126 90-118 99 4 3 1 6-5 6-7 0-31 14-54 30-47 34-108 40-175 16-37-13-39-13-40 8-2 14 11 30 37 49 22 16 52 44 67 64l27 35-57 55c-31 30-57 52-57 48 0-5-8 0-19 9-10 9-45 33-77 54-53 33-66 36-128 37-68 0-70 1-89 32-27 47-37 122-19 151 8 12 20 22 28 22 10 0 151-105 174-130 3-3 30-22 60-43 64-43 97-46 167-16 65 28 93 23 259-51 159-69 246-130 270-188 33-77 46-98 85-142 22-25 47-57 56-72 14-23 24-28 57-28s45 7 85 48c25 27 60 66 78 89 32 40 32 40 10 63-12 12-15 19-7 15s5 2-7 14c-21 20-27 34-24 54 0 4-4 7-11 7-6 0-9 3-5 6 3 4-1 13-9 22-12 12-14 26-9 61 13 89 90 200 172 248 37 21 52 25 93 20 27-3 58-14 70-24 11-10 60-69 107-130 47-62 90-113 94-113 11 0 36-57 42-95 21-132 32-164 142-402 32-68 38-74 87-97 29-13 79-29 110-34 83-16 110-31 253-148 281-227 485-374 540-388 34-9 85 19 85 44 0 11-19 41-41 65-46 50-44 29-23 215 4 41 2 48-33 86-21 22-50 48-65 57-16 10-28 25-28 34s-3 13-7 10c-9-10-83 114-83 140 0 41 176 153 240 153 39 0 83-27 72-45-4-7-31-32-60-55-47-37-53-45-47-68 9-38 38-59 100-72s65-17 123-165c47-120 46-132-8-185-47-46-50-66-14-82 25-12 29-9 92 60 36 40 92 93 126 116 85 61 419 226 455 226 23 0 37-9 58-37 15-20 42-52 60-70 31-33 33-34 61-19 42 22 113 104 150 174 33 61 33 61 22 139-21 152-23 226-6 306 8 42 13 85 9 94-12 32-73 98-112 122-50 31-62 53-68 121l-5 57 43-4c72-5 148-23 164-39 8-9 15-13 15-10 0 11 95-54 140-95 70-63 98-81 106-68 3 6 14 42 24 79 25 98 65 130 159 130 44 0 119-22 131-39 11-15 141-101 235-156 239-139 340-210 514-364 87-77 227-189 263-211 29-17 29-17 58 11 16 16 38 30 49 30 12 1 27 2 35 3 16 1 149-92 531-373 96-71 136-93 227-121 57-18 57-18 78 5 25 27 29 74 9 103-8 11-46 45-85 75-52 41-76 68-93 105-20 42-22 54-11 66 9 12 17 13 32 5 35-19 77-1 111 48 29 41 35 45 67 40 20-2 84-25 144-51 140-60 217-80 276-71 73 11 76 15 120 132 6 17 18 34 27 37 14 6 88-40 183-112 50-39 96-60 197-93 37-12 84-28 104-35 30-11 40-10 56 1 11 8 22 12 25 10 3-3 11 6 18 20 12 23 12 30-5 57-10 17-19 44-21 59-2 17-21 46-44 70-22 23-40 48-40 55 0 8-4 14-10 14-5 0-10 7-10 17 0 9-3 14-6 10-8-8-34 18-34 33 0 6-3 9-8 7-11-7-446 496-503 581-27 41-46 79-43 84 4 7 2 8-4 4-7-4-13-1-14 6 0 7-2 18-2 24-1 6-7 18-14 26-6 8-15 30-18 47-11 55 23 35 94-54 145-183 183-225 500-550 76-77 182-182 237-233 116-109 370-324 402-341 34-17 73-13 103 12 33 28 28 44-32 107-24 25-76 83-117 130-105 121-113 129-145 158-15 15-35 40-43 57-9 16-33 48-54 70s-39 46-39 54-3 11-6 8c-8-8-80 82-77 95 2 4-1 8-6 8-23 0-135 258-124 287 8 19 18 17 90-24 40-22 82-37 107-39 143-10 302-89 441-218 78-74 171-141 229-167 117-51 352-66 467-28 35 12 81 30 103 41 21 11 48 17 60 14 31-8 182-131 465-379 175-154 236-212 233-220-1-5 2-6 8-2 5 3 25-6 44-20 22-17 42-24 54-21 10 3 70 55 132 115 114 108 114 108 97 134-9 14-45 50-79 78-35 29-65 56-66 60-2 5-7 7-11 5-4-3-40 22-80 55-40 32-68 59-62 59 7 0 7 8-1 25-6 14-15 25-20 25s-26 13-46 29c-20 15-84 62-142 104-127 93-208 162-198 172 14 14 132-37 468-202 347-171 391-187 452-163 38 15 78 48 78 65s-39 50-88 75c-78 41-39 54 74 26 46-12 52-11 74 6 13 11 25 25 26 32s-26 30-60 52c-57 37-59 39-33 42 15 2 49-3 75-11 26-9 74-18 107-21 33-4 67-14 77-23 17-15 20-15 46 4 15 11 41 41 59 67l31 48-31 30c-18 16-25 27-17 23 8-3 6 0-4 7-11 7-30 23-42 36-11 12-27 22-33 22-7 0-30 18-51 40-22 23-41 39-43 38-3-2-46 29-96 67-50 39-108 82-129 97-20 15-41 31-47 36-5 4-30 22-55 39s-65 49-90 72c-25 22-52 46-60 53-24 21-80 58-89 58-4 0-25 15-47 34-21 18-68 56-103 84-68 55-84 73-96 111-5 16-4 21 4 17 7-5 9-1 5 8-8 20 10 21 26 1 7-9 15-13 17-11 3 3 30-16 61-41 63-51 148-93 190-93 22 0 71-19 50-20-4 0 50-59 120-130 70-72 127-136 127-143 1-7 6-11 13-9 7 1 17-8 23-21 7-16 49-43 122-81 62-32 130-71 152-87s66-43 99-61c32-18 60-38 63-45s11-13 18-13c6 0 20-9 29-19 22-24 35-22 77 13 32 27 47 56 28 56-5 0-9 6-9 13 0 8-9 22-20 32s-20 27-20 37c0 34-29 75-87 125-32 26-59 51-61 56-2 4-10 7-18 7s-14 7-14 16c0 8-5 12-10 9-6-4-9-1-8 7 2 7-4 13-12 13s-26 12-40 26-34 28-44 32c-14 5-16 11-9 18 13 13 96-38 86-54-3-5-1-7 4-4 6 4 21-4 34-16 13-13 44-35 69-50 25-14 77-54 115-87 39-34 89-78 112-97l42-35 88 45c228 118 268 142 268 162 1 11-2 22-6 25s-54 49-111 103c-58 54-116 106-129 114-13 9-33 26-44 37-11 12-48 43-81 69-47 36-69 63-92 110-29 59-30 65-20 122 20 117 16 143-28 231-26 52-39 87-33 95 6 10 14 7 33-14 24-26 31-28 88-25 63 3 63 3 66 35 3 30-2 35-95 96-54 35-107 74-117 85-11 12-23 22-27 22-11 0-128 78-166 111-17 15-29 30-26 33 4 3 1 6-6 6-21 0-94 53-199 145-57 49-121 103-143 118-35 25-45 43-39 72 1 5-1 7-5 4-11-11-175 166-175 189 0 6-4 12-9 14-4 2-20 22-35 46-15 23-38 48-51 54-14 6-25 17-25 25 0 7-4 13-10 13-5 0-14 18-20 39-8 30-23 49-60 76-28 20-50 41-50 47 0 5-20 34-45 65-25 30-45 63-45 73 0 11 25 38 59 64 57 44 60 50 77 126 4 20-38 71-166 203-73 76-111 124-127 160-26 62-19 72 55 83 77 12 140-16 230-99 82-77 138-120 160-123 14-3 62-54 62-67 0-4 9-18 21-30 11-12 29-39 40-59 20-38 98-122 139-148 12-8 41-32 63-53 22-20 44-37 49-37s6-4 3-10c-3-5 2-10 12-10s28-3 39-6c16-4 27 2 41 23 39 55 37 64-21 126-30 32-61 56-68 55-17-4-17 21-1 55 14 28 27 34 38 17 3-6 15-10 26-10 10 0 19-4 19-10 0-5 6-10 13-10 14 0 53-96 62-155 14-88 24-113 50-117 13-3 22-1 19 3-3 5-1 9 5 9s36 21 67 46c56 46 57 46 84 30 37-21 91-20 201 4 51 12 93 19 94 18 1-2 21-59 45-128 56-165 80-208 175-309 44-48 109-119 144-158 70-81 139-121 251-148 145-35 151-37 193-83 79-83 142-142 154-142 26 0 139-62 171-93 41-39 85-121 87-164 3-39 31-89 65-115 14-10 51-29 83-42 48-19 63-21 83-12 13 6 24 20 25 31 4 48-3 113-16 155-8 25-16 89-20 143-6 99-11 127-25 127-16 0-312 299-305 309 3 6 0 11-7 11s-24 17-38 38c-14 20-32 44-40 52-14 14-14 14 0 5 8-5-12 18-44 52-33 34-65 59-70 56-6-4-8-3-5 1 9 10-42 62-116 122-33 26-69 56-79 66-31 28-116 39-194 25-26-4-34-2-43 16-17 30-16 90 1 121 12 24 12 30-1 51-19 32-142 168-259 286-81 81-102 97-143 108-36 9-52 19-68 44-16 27-39 95-42 124 0 4-6 14-13 21s-10 20-7 29c4 10 2 14-4 10-10-6-25 14-27 35-1 10-27 46-53 76-12 13-25 33-28 43-4 11-10 19-15 19s-19 17-31 38c-13 20-26 39-29 42s-16 18-28 34-22 25-23 20c0-5-8 22-19 59-19 72-57 121-104 133-20 5-25 14-31 53-6 47-8 48-61 71-56 23-92 60-78 81 4 7 3 9-3 6-12-8-37 69-27 85 4 6 3 8-2 5-6-3-20 17-33 45-12 27-25 47-28 44-8-7-63 50-63 65 0 6 27 44 60 85 32 41 77 105 99 142 52 87 139 201 171 224 14 9 43 20 65 23 22 4 50 8 62 10 25 3 132-62 238-145 33-26 114-81 180-123 66-41 123-81 127-89 3-7 18-39 33-71 34-74 98-126 202-164 66-24 81-34 111-76 40-56 133-134 169-143 29-8 41 2 49 41 4 24-1 38-25 69-17 22-41 55-53 75s-33 48-46 64c-14 15-22 27-18 27s-12 21-36 46c-24 26-42 51-40 56 1 5-2 7-6 4-11-7-34 18-58 64-14 25-21 67-26 145-7 118-9 137-15 131-2-2-34 25-69 60-36 35-71 64-79 64-15 0-120 103-166 164-19 25-43 49-54 54-31 15-65 43-113 92-62 63-72 75-72 88 0 15 34 24 65 16 27-7 27-7 19 42-5 27-8 59-9 72 0 12-3 22-7 22s-33 33-66 73c-52 62-68 75-123 96-34 13-77 24-94 23-21-1-40 8-62 28-17 16-32 27-34 25s-20 20-39 48c-19 29-47 66-62 82-16 17-28 34-28 38 0 5-6 14-12 21-7 7-33 34-57 60-44 49-113 88-138 79-15-6-10 34 14 101 19 57 16 75-16 94-17 9-35 27-40 39-14 30-52 38-89 19-29-15-31-15-37 3-3 11-3 31 1 46 5 21 3 27-15 32-35 9-24 31 27 57 63 32 76 49 66 83-4 16-6 34-5 42s-2 10-10 5c-8-4-10-3-5 4 4 7 4 17 0 23-4 8-9 7-15-2-6-10-8-8-7 6 0 11-3 29-7 39-5 12 3 8 22-12 17-18 34-32 38-32s16 12 28 26c20 26 20 26 33-10 8-20 20-51 27-70 20-53 36-66 78-66 43 0 79 27 79 59 0 60-67 266-98 303-18 21-9 95 18 148 9 19 25 67 34 107 17 70 17 72-3 118-21 48-105 188-144 240-82 111-130 169-192 233-86 89-94 108-73 165 14 39 14 46-1 73-17 33-124 156-178 207-35 32-42 68-20 91 19 22 51-2 157-116 52-57 118-123 147-148 28-25 73-76 99-113 51-73 70-90 152-131 51-26 56-26 101-13 42 12 86 13 117 3 6-3 13-37 16-79 3-46 11-83 21-98 10-13 17-33 17-44 0-29 28-65 50-65s40-44 47-120c3-34 12-62 23-74 16-17 22-18 49-6 68 28 120 122 87 156-28 28-44 67-71 180-19 76-34 117-51 135-13 14-24 32-24 41s-6 18-13 21c-7 2-18 33-26 68-18 90-18 89-46 89-15 0-24 4-21 9 4 5 3 11-2 13-4 1-26 41-48 88-49 102-161 280-258 408-94 125-154 210-172 248-8 17-26 42-40 55-29 27-30 46-5 73 46 52 132 194 147 245 13 45 15 84 11 206-6 165-15 209-58 271-26 39-32 42-89 48-60 7-60 7-83 54-13 26-34 73-46 104-13 32-30 63-38 70s-19 22-24 35c-11 29-33 29-47 1-6-13-11-17-11-10-1 17-21 15-21-3 0-29-73 36-348 312-153 153-293 289-311 303-32 24-175 149-307 267-34 30-74 63-89 73s-26 21-25 25-8 16-19 26c-12 11-21 17-21 14 0-4-6 0-14 7-7 7-71 67-141 133-326 306-621 686-781 1007-42 84-87 168-101 186-26 34-96 76-108 64-3-4-5 0-3 8s-4 14-12 15c-8 0-15 5-15 10-1 21-23 43-110 110-112 87-196 165-189 176 3 5 0 9-6 9s-9 4-6 9c4 5 0 12-6 14-10 4-10 6 0 6 14 1 16 37 2 46-5 3-7 11-4 18 6 17-82 109-125 128-20 9-45 26-57 36-11 11-30 26-42 32-13 7-20 16-17 22 4 5 3 9-2 9-8 0-33 47-33 61 0 3-16 23-35 44s-33 41-32 44c7 28-104 125-163 141-25 7-59 32-102 75-36 36-70 65-77 65-6 0-11 4-11 9s-17 20-37 32c-40 25-93 70-155 132-21 20-43 37-49 37-5 0-7 5-4 10 3 6 3 10-2 10-11 0-63 84-63 102 0 9-6 21-14 27-7 6-11 21-9 34 5 25-44 87-69 87-17 0-188-111-207-134-19-22-38-20-73 9-33 28-64 32-93 11-11-7-31-16-45-19s-34-12-44-20c-19-14-18-16 13-71 18-31 60-80 93-109 68-60 91-102 82-157-5-31-10-37-25-33-11 3-26 21-35 39-9 19-20 34-24 34-5 0-12 9-15 21-4 11-9 18-13 15-9-10-42 26-42 45 0 10-8 23-18 28s-24 22-32 38c-19 38-73 117-83 121-4 2-5 8-1 13 3 5 0 9-5 9-6 0-11 9-11 20s-4 20-8 20c-16 0-74 55-89 85-8 16-23 39-33 50-16 18-40 78-40 98 1 21-36 70-96 128-36 35-74 71-83 80-19 20-121 72-127 66-3-3-23-1-45 4-51 12-84 3-104-28-13-19-14-27-4-39 9-11 8-14-9-14-11 0-22 6-25 14-3 7-19 18-35 24-23 8-38 6-71-9-58-26-75-69-66-166 9-99 12-104 268-368 85-89 87-92 87-141 1-58 8-73 77-150 28-33 72-89 97-125l45-66-27-26-28-26-49 47c-28 27-63 65-80 86-16 21-40 50-52 65-13 14-23 31-23 37 0 24-158 189-220 230-41 26-73 56-117 110-17 22-73 83-125 136-51 54-109 116-128 139-19 22-56 61-82 86-27 26-48 51-48 57-1 18-126 121-166 136-43 17-171 104-239 164-38 33-137 135-220 225-172 189-222 229-293 238-48 5-49 5-113-52-35-31-67-66-71-77-11-27 13-77 53-114 39-36 212-165 279-208 56-37 207-186 207-206 0-39 28-102 78-180 50-77 55-89 55-140 0-70 51-203 101-261 19-23 48-66 65-96 18-30 50-74 73-97 22-23 41-47 41-53s7-16 16-23c39-33 64-97 73-189 12-108 32-147 108-208 27-21 62-50 78-64 17-15 55-48 85-74s99-93 152-149l97-101-31-32c-31-32-32-32-57-16-35 23-39 27-106 118-65 88-348 374-438 444-32 24-76 62-99 83-79 74-128 88-190 53-43-25-95-34-83-15 4 6 24 22 46 36 21 13 39 30 39 37 0 6-32 50-70 97-62 75-104 121-261 291-19 21-53 60-75 87-54 68-92 87-174 87-70 0-100-15-100-50 0-31 54-102 108-141 43-31 60-52 88-112 43-91 40-113-12-83-39 23-66 26-95 11-37-20-22-66 48-140 42-44 49-72 35-127-9-32-9-48-1-61 15-23 120-102 136-102 14 0 35-34 26-44-11-10-37-7-68 10-16 9-44 24-61 33-27 14-86 61-158 126-12 11-37 31-56 45-18 14-38 30-44 35-35 32-112 45-135 23-17-18-41 15-41 57 0 41-60 140-140 232-36 41-82 98-103 126-113 154-177 202-258 195-28-3-55-10-61-16-13-13 80-184 168-306 69-96 285-340 315-357 20-10 66-3 87 14 7 6 12 6 11 1-7-23 16-56 51-74 22-11 51-32 65-47s25-24 25-20 14 0 30-8c25-13 51-50 52-75 0-3 4-11 10-18s8-15 5-18c-11-11-57 29-91 81-22 32-42 52-53 52-45-2-170 17-193 28-30 16-77 59-108 100-13 17-49 57-81 90-31 33-75 83-97 110-106 131-271 343-286 365-9 14-54 64-100 111-62 64-104 98-163 130-74 39-86 43-157 43-49 1-82-4-89-11s-19-13-26-13c-25 0-123-51-123-64 0-16 22-38 97-96 29-22 60-52 70-66 16-25 16-27-1-40-12-8-34-11-65-7-79 9-218-43-220-83-1-13 74-84 89-84 20 0 30-37 17-69-21-56-111-83-312-96-114-7-279-36-407-71-138-38-173-31-249 49-25 26-69 110-69 131 0 8-8 22-17 32-10 10-18 21-18 25 0 13-55 69-68 69-7 0-29-11-49-25-20-13-54-32-77-41s-41-20-41-25c0-19-23-8-67 31-25 22-71 54-102 71-52 28-61 30-130 25-45-3-78-10-82-18-30-47 19-148 126-258 45-46 77-89 85-112 16-51 84-141 157-208 60-55 73-66 168-144 28-23 54-47 58-54 5-7 26-26 48-42 39-28 41-28 76-14 45 19 57 14 82-34 11-21 65-88 120-148 76-82 120-143 183-249 46-77 102-164 126-192 42-52 52-85 31-99-18-10-5-87 25-147 14-30 68-102 120-161 98-111 214-294 321-506 5-11 13-20 17-20 5 0 8-4 8-9 0-16 83-135 124-179 23-24 62-55 89-69 42-23 47-30 47-60 0-26-4-33-20-33-11 0-20-5-20-10 0-36-187 139-267 250-22 30-77 128-122 217-110 217-204 339-277 357-32 8-164 87-164 99 0 4-5 5-10 2s-10 1-10 9c0 9-3 15-7 13-5-1-10 2-13 8-3 5-16 21-29 35s-37 43-55 64c-17 22-52 63-78 91-27 29-46 55-43 58 3 4 3 6 0 4-2-2-51 42-108 97-112 109-118 114-377 323-181 145-269 225-335 303-21 25-34 39-30 31 6-10 4-12-4-7-7 5-10 14-8 20 3 7-14 33-36 58-51 55-83 100-79 111 1 4-2 7-8 7-5 0-17 15-27 33-17 32-19 38-22 58 0 5-6 7-12 4-6-4-9-1-7 6 2 14-52 104-88 146-39 45-54 63-50 63 2 0-53 55-122 123-215 208-351 350-345 360 3 6 1 7-5 3-7-4-12-3-12 3 0 5-17 27-38 48-53 54-80 88-62 78 8-5 5 2-8 16-98 105-123 135-140 169-11 22-22 37-26 33-3-3-6 0-6 7s-14 26-30 42c-17 15-30 31-30 33 0 3-10 19-22 35s-22 37-23 47-7 29-13 43-20 46-31 72c-12 30-31 55-52 67-31 19-33 19-80 2-48-19-48-19-83 6-20 13-37 28-37 33-1 6-2 14-3 19 0 5-11 21-23 35-13 15-23 30-23 35 0 4-9 16-20 26s-17 22-13 28c3 5 2 7-3 4-6-3-18 7-29 23s-28 31-39 34-56-11-100-31c-91-40-153-46-207-19-30 15-34 15-52-1-31-29-48-70-41-100 4-16 25-55 47-88s80-139 129-235c81-159 142-262 176-298 18-20 15-60-6-71-28-15-71 30-116 124-32 66-56 97-137 178-55 53-99 103-100 110 0 6-14 23-32 37-27 21-43 25-117 28-75 3-88 1-113-18-30-23-67-88-67-116 0-10 7-40 15-68s17-63 20-79c7-35 53-79 231-222 149-120 169-141 179-198 6-31 4-37-20-53-25-16-29-16-53-1-15 8-30 28-34 44-9 34-84 123-104 123-18 0-48 28-57 53-10 27-71 106-83 107-12 0-44-63-44-88 0-10 9-45 21-77 21-60 62-119 129-185 19-19 62-69 95-110 69-85 307-327 411-417 39-34 111-95 160-136s128-112 176-158l87-84-5-120c-6-120-6-120 24-165 17-25 47-64 66-87 54-62 243-210 306-239 116-53 198-98 208-115 6-10 16-48 22-85 8-48 21-81 45-118 55-81 63-89 80-83 8 4 15 2 15-3 0-6 6-10 13-10 33-2 135-128 171-215 9-21 19-35 22-32 18 17 97-128 114-208 12-59 11-62-42-157-7-13-14-25-15-26-1-2-79 65-175 149-95 84-181 160-191 169-10 8-31 25-45 38-45 39-93 78-174 142-43 34-78 66-78 71 0 6-4 8-9 5-13-8-227 206-284 284-26 36-53 71-60 79-28 32-46 65-40 74 3 6 1 7-5 3-6-3-13 3-17 14-3 11-22 36-41 56s-34 41-34 46c0 4-37 47-82 94-77 80-212 184-239 184-7 0-31-16-55-35-23-19-49-33-56-30-18 7-50 60-41 69 3 3 2 6-4 6-9 0-29 39-33 65 0 2-14 19-30 37-17 18-30 36-30 39 0 16-111 61-135 56-31-5-63 32-91 103-24 62-73 124-141 177-32 25-57 51-55 57s0 8-4 4c-8-9-50 20-101 70-21 20-51 45-67 55-41 27-260 230-481 446-104 102-212 200-239 218-53 34-78 46-356 153-184 71-345 155-333 173 3 6 2 7-3 4-6-3-26 9-46 26-19 18-41 33-48 35-8 2-46 35-86 74s-86 80-101 92-49 44-75 71c-27 28-48 46-48 41 0-6-38 28-84 75-291 291-511 497-549 514-12 5-24 13-27 17-7 10-76 38-92 38-8 0-23-7-35-15zm10189-1063c13-11 15-18 5-32-10-18-12-17-34 6-12 13-20 31-17 39 6 15 17 12 46-13zm-6082-1006c185-210 205-239 214-303 6-47-8-123-23-123-11 0-158 154-196 205-16 22-32 42-35 45-15 13-58 81-126 198-75 128-85 162-63 205 12 21 12 20 38-9 14-17 100-115 191-218zm-4674-1292c49-42 132-116 184-163 52-48 144-129 204-181 112-97 239-220 289-279 15-18 27-29 27-25 0 5 12-9 25-31 14-22 25-36 25-31s9 1 20-9c10-9 19-20 18-24-2-19 3-31 11-26 5 3 12-3 15-13 4-10 17-25 31-32 13-7 22-17 19-22-3-4-1-8 5-8 24 0 291-314 291-343 0-24-23-31-52-17-13 7-108 97-213 200-104 103-206 203-225 222-19 18-42 43-51 53-9 11-29 32-45 46-55 48-194 198-194 208 0 6-20 32-45 58-24 26-45 52-45 56s-21 29-47 55c-27 26-108 111-182 187-200 209-225 255-65 119zm4918-1015c86-81 109-122 88-157-14-22-39-3-114 86-40 48-96 113-125 145s-50 63-47 69c4 6 2 8-4 4-12-7-79 70-74 86 1 5-2 7-7 4s-15 2-22 11c-12 14-12 16 1 8 8-4-4 9-28 30-24 20-41 44-40 53 2 10-3 16-10 14-8-1-10 2-7 8 4 7 72-52 163-143 87-84 188-183 226-218zm969 249c41-55 43-75 7-93-29-15-34-15-56 0-31 20-33 76-4 105 11 11 22 20 24 20 3 0 16-15 29-32zM2210 7813c38-26 56-50 106-143 27-48 67-104 93-128 45-42 46-44 45-102-1-33-6-66-13-74-15-18-5-40 32-69 90-68 159-82 246-47 82 32 136 10 183-76 41-73 38-120-14-226-24-49-47-88-52-88s-87 60-183 133c-217 165-263 196-289 196-37 1-37-5-1-89 6-14 13-29 16-34 7-15-67 1-115 25-45 21-98 84-87 102 3 6 1 7-5 3-6-3-27 27-52 76-37 73-43 93-47 169-6 89 14 229 44 318 25 73 47 86 93 54zm15018-2690c51-33 54-51 15-92-27-27-30-28-73-17-25 6-45 16-45 23 0 13 61 103 70 103 3 0 18-8 33-17zm748-3108c10-8 15-15 9-15-5-1 4-9 22-18 17-9 68-48 114-87 45-38 94-80 108-92 20-17 23-24 14-34-9-9-18-8-40 7-15 10-33 19-39 20-12 2-49 30-68 52-31 36-65 66-106 95-58 40-82 69-67 79 18 11 31 10 53-7zm-284-170c3 3 11-1 18-10 7-8 20-15 30-15 23 0 45-26 30-35-9-6-110 60-110 72 0 3 6 0 13-6 8-6 16-9 19-6zm-5110-323c57-33 172-130 176-149 2-7 8-11 13-8 5 4 9 1 9-6s3-9 7-6c10 10 54-34 46-46-3-6-1-7 4-4 20 12 280-297 298-353 10-32 9-34-14-34-10 0-41 20-69 44-28 25-63 55-79 67-15 12-67 59-116 105-48 46-87 83-87 82s-38 36-85 82c-47 45-85 81-85 78 0-2-16 13-37 33-42 44-67 96-58 124 8 25 20 23 77-9zM3655 12380c3-5 8-10 11-10 2 0 4 5 4 10 0 6-5 10-11 10-5 0-7-4-4-10zm600-560c10-11 20-20 23-20s-3 9-13 20-20 20-23 20 3-9 13-20zM545 8580c3-5 11-10 16-10 6 0 7 5 4 10-3 6-11 10-16 10-6 0-7-4-4-10zm-44-88c-13-25-14-42-2-42 10 0 25 50 17 57-2 3-9-4-15-15zm17856-6049c-4-3-7-29-7-57 1-43 6-57 33-87 59-66 121-100 228-127 41-11 81 5 100 39 9 18 6 25-23 50-18 16-47 42-63 57-87 78-243 151-268 125zM4290 1889c0-5 5-7 10-4 6 3 10 8 10 11 0 2-4 4-10 4-5 0-10-5-10-11z"/>
  </g>
 </svg>
 <svg width="1976" height="1636" version="1.0" viewBox="0 0 1976 1636">
  <g transform="matrix(.1 0 0 -.1 0 1636)" fill="#aeadae">
   <path d="M2046 16197c-47-48-166-272-193-360-18-58-18-128-2-169 11-27 98-98 120-98 7 0 26-15 43-33s70-59 119-91c48-33 89-62 92-65 2-4 58-40 124-81 213-132 447-287 499-332 28-23 76-63 108-88 113-91 198-217 216-324 5-33 21-78 34-98 13-21 24-42 24-47 0-6 10-16 23-22 12-7 56-43 97-81 72-66 197-148 250-163 34-10 88-43 131-79 19-17 62-53 94-81 60-50 260-235 368-338 35-34 57-64 57-77 0-16-4-20-16-16-26 10-135 91-239 178-55 46-120 99-145 118s-97 75-160 126c-185 147-286 210-319 199-30-9-64-52-54-68 4-8 86-95 182-193 207-213 389-415 468-522 93-125 213-273 263-327 71-74 258-302 298-362 45-68 53-128 23-176-13-22-24-60-27-99-6-63-6-63 44-138 32-47 127-150 251-275 111-110 201-204 201-210 0-5-15-25-34-42-33-33-33-33-82-18-72 22-83 31-207 146-294 275-512 463-702 604-44 33-118 90-165 126-157 123-200 133-326 75-41-19-74-39-74-45 0-8 61-80 125-147 11-11 94-87 183-169 90-81 221-203 290-269 70-67 158-151 195-187 93-87 124-128 106-140-21-13-23-13-91 43-331 274-948 895-948 955 0 12 10 13 53 8 47-6 64-3 128 25 124 52 136 79 60 134l-43 31-38-42c-21-24-42-43-46-43-5 0-31 44-59 96-60 118-107 168-205 221-41 23-101 61-132 85-163 124-464 374-545 451-91 88-91 88-163 96-82 8-104 1-137-47-25-38-23-47 26-117 41-59 50-67 166-150 100-71 166-136 245-240 29-38 68-87 87-108 36-41 83-137 83-170 0-11-7-28-16-38-16-17-18-17-53 9-20 14-62 48-93 75-125 106-155 116-221 70-59-41-64-58-25-91 106-87 234-215 289-289 21-28 43-54 49-58 13-8 13-42-1-50-6-4-36 9-67 28-52 33-58 34-74 20-10-9-18-26-18-37 1-21 24-48 318-371 78-86 142-164 142-173s-4-23-9-30c-14-22-123 35-250 131-115 87-115 87-137 66-12-11-27-41-33-65-17-67-36-67-94-3-27 30-60 76-74 103-37 73-107 135-214 189-106 54-166 97-340 247-258 223-307 264-389 328-47 37-116 93-155 125-98 82-164 124-207 132-35 7-38 5-48-21-14-35-6-69 23-104 141-173 266-331 281-355 18-27 123-159 230-289 23-27 108-121 190-210 203-219 239-263 265-329 22-54 22-58 7-82-9-14-20-25-24-25-11 0-166 121-220 171-229 213-373 348-403 378-19 20-59 54-88 76-71 55-311 265-451 395-293 274-316 286-409 224-25-17-45-22-80-20-25 2-54-1-64-6-23-12-61-95-76-168-7-30-17-65-24-76-24-42-87-104-107-104-12 0-30-15-45-38-26-39-26-39-6-85 17-39 25-47 58-55 83-20 162-32 209-32 99 0 97 2 91-119-6-127-16-141-104-141-67 0-126-28-141-67-6-15-16-61-21-101-5-41-11-76-14-78-2-2-31-7-65-10l-62-7v-79c0-56 5-86 17-104 25-38 86-65 161-70 56-4 87-14 186-62 121-58 166-95 166-136 0-13-23-59-52-102l-52-79-9-193c-11-218-20-188 79-258 40-28 66-37 118-44 77-9 130-36 134-69 5-30-10-44-61-56-28-7-46-19-54-35-21-42-15-119 13-180 44-95 104-143 192-155 91-12 152-89 319-400 82-152 123-209 273-375 190-210 176-181 139-290-29-85-31-99-27-189 4-71 1-103-8-116-12-16-17-13-66 37-85 86-424 377-528 452-102 73-194 123-277 150-42 14-64 31-118 91-73 82-152 145-182 145-23 0-45-42-36-67 3-10 18-32 32-49s48-61 74-98c27-37 80-100 118-141s69-81 69-89c0-7 7-19 15-26 12-10 15-37 15-120 0-108 0-108 33-138 17-16 55-50 83-76 28-25 54-46 58-46s28-14 52-31c31-21 47-40 51-61 4-22 15-34 39-44 43-18 335-294 327-308-4-6-23-37-43-68-65-100-67-122-25-289 41-164 82-260 146-339 78-96 134-183 169-260 18-41 45-95 59-120 48-86 202-305 276-395 41-49 116-159 167-244s130-200 174-256c45-55 107-143 139-194 50-82 56-96 46-117-6-13-14-24-19-24s-34 18-66 40c-31 22-60 40-63 40-13 0-171 112-200 142-32 33-66 79-149 200-41 59-46 74-48 127-3 57-6 66-90 190-140 209-275 403-311 447-41 49-91 77-117 63-28-15-92-133-157-289-77-187-96-264-82-341 11-64 69-178 141-279 25-36 70-101 100-145 100-151 165-230 287-353 97-97 136-144 184-225 34-56 89-131 123-167s68-78 75-95c27-63 80-122 140-154 76-40 117-87 126-143 18-118 31-142 155-288 175-206 214-269 231-382 13-87 47-184 101-291 21-43 60-129 85-190 25-62 60-144 79-183 48-102 146-247 176-261 23-10 29-7 68 28 50 46 64 48 86 14 20-30 16-66-21-180-14-44-25-87-25-96 0-8 27-58 61-110 33-52 83-140 111-197 61-123 73-132 186-132 66 0 84-4 106-21 25-20 27-26 23-78-2-31-10-87-17-125-13-66-12-71 9-112 19-34 36-49 87-75 81-40 109-74 184-220 43-85 76-134 120-180 34-35 72-84 85-109s37-58 54-74c26-25 41-30 105-35 75-6 75-6 130-68 31-33 75-85 98-114 53-67 59-73 134-110 67-33 88-60 110-145 34-133 110-234 259-348 44-33 128-103 186-156 179-161 240-213 344-294 195-153 346-318 414-453 33-65 120-153 150-153 44 0 118 33 213 95 142 93 176 121 198 166 23 44 26 123 8 166-12 27-100 169-140 227-21 29-21 29 1 73 11 24 21 56 21 71 0 57 10 73 44 70 23-2 34-10 44-33 25-59 39-80 51-77 7 1 39 5 71 9 82 8 92-2 84-82-8-76 6-125 50-171 18-19 57-67 86-108 35-47 78-90 121-120 36-26 110-87 163-136 56-52 108-91 125-95 36-8 91 6 201 52 47 20 153 58 235 85 83 28 202 74 265 103s143 65 177 80c35 15 63 34 63 41 0 20-50 74-69 74-10 0-43-18-73-39-86-62-228-118-228-90 0 6-14 27-31 48-27 34-37 39-86 45-66 8-84 16-144 70-26 23-72 56-103 75-30 19-83 58-116 88-52 45-67 53-101 53-22 0-56-7-76-15-86-36-85 0 2 78 36 32 65 64 65 71 0 24-107 113-217 180-59 37-64 38-123 31l-60-7-22 48c-29 67-35 126-13 147 24 25 47 21 91-16 81-69 219-168 241-173 13-4 45 2 71 11 83 30 132 30 193 0 29-15 83-39 119-52 138-52 223-121 275-223 41-80 117-177 151-192 39-18 85 11 147 93l54 72-43 70c-36 59-44 80-44 120 0 64 30 124 98 198 58 63 107 91 159 91 62 0 91-21 164-118 39-52 90-117 114-145 43-50 60-97 80-224 4-22 26-82 49-135 24-52 51-115 62-139 37-88 75-116 177-132 93-15 135-38 272-151 249-203 455-352 529-383 29-12 36-12 64 5 18 11 32 27 32 36 0 8-21 36-46 62-39 40-45 51-40 77 4 17 9 62 12 101 7 83-4 108-71 156-48 35-135 163-135 199 0 31 35 66 115 114 78 46 128 60 165 45 29-12 44-35 34-51-3-5-29-27-59-49-53-39-53-40-43-74 9-27 20-39 50-51 21-8 49-15 62-15 12 0 31-9 40-19 21-23 106-232 106-260 0-11-20-43-45-71s-45-52-45-55c0-2 7-10 15-18 22-23 52-9 90 40 74 97 154 152 394 273 104 51 178 82 199 83 37 1 41-2 99-87 37-52 59-57 104-25 35 24 97 106 128 168 20 37 22 53 16 115-9 99-9 300-1 366 8 53 7 56-29 98-20 23-56 56-81 72-35 25-46 40-59 82-8 28-15 63-15 76 0 24 1 25 78 20 65-4 89-10 149-42 40-21 106-69 148-107 41-38 79-69 83-69 10 0 26 46 42 120 20 90 17 88 127 97 78 7 115-6 200-69 37-27 122-82 188-120 243-142 256-152 660-483 126-104 164-129 165-107 1 20 32 45 66 52 36 8 42 6 203-110 91-65 193-138 225-164 33-25 62-46 66-46 3 0 15-8 26-17 31-29 127-100 151-112 36-18 159-61 177-61 22 0 50 61 42 93-3 15-39 53-86 92-99 83-135 145-114 199 5 13 10 12 34-5 26-20 29-20 58-5 16 8 43 36 58 61 35 56 37 56 194-15 61-27 137-57 167-66 66-19 166-15 188 7 9 8 27 46 40 84 14 38 27 71 30 73 8 8 40-12 152-92 99-70 163-101 305-145 84-26 90-26 116 2 28 30 28 35-6 110-31 67-71 120-228 297-403 456-427 487-495 619-34 68-47 143-23 134 8-3 67-71 131-152 174-218 636-690 878-897 176-151 233-194 256-194 28 0 64 19 77 41 16 25 19 22-253 318-33 36-83 95-110 131s-74 94-106 130c-63 73-113 159-158 272-27 66-40 138-26 138 2 0 34-16 71-36 44-25 97-43 159-55 157-32 262-88 416-225 161-144 238-183 399-204 167-21 261-9 387 52l62 30 38-28c21-16 89-71 151-124 63-52 144-120 181-150s78-66 91-78c56-53 247-219 280-243 63-46 62-46 167 52 148 137 146 135 126 165-9 14-79 73-156 131-88 68-143 116-148 132-11 30-10 30-226 190-167 124-204 161-161 161 41 0 148-47 487-215 218-108 345-165 365-165 41 1 112 33 125 59 14 25-10 51-79 86-58 29-101 64-80 65 8 0 47-7 85-15 128-28 129-28 148-7 24 27 15 43-49 82-104 63-93 102 14 49 49-24 85-34 132-37 43-3 73-11 89-23 23-18 25-19 44-2 38 33 66 68 76 94 8 24 5 31-27 62-21 19-149 119-287 222-137 104-270 205-295 225s-94 74-155 120c-160 122-233 187-255 231-18 34-18 39-4 53 8 9 17 16 19 16s37-28 77-61c81-69 159-109 223-117 40-4 51-13 176-150 74-80 148-160 164-177 17-18 77-55 136-83 58-28 119-62 135-75s61-44 99-69c39-25 79-55 89-66 26-30 47-27 84 11l32 33-28 45c-15 24-33 63-40 86-10 32-25 52-65 82-29 22-79 61-112 86s-110 84-172 130c-123 93-140 110-92 93 69-24 370-239 514-367 44-40 87-76 95-81 11-6 62 17 176 78 89 48 168 93 177 101 27 22 34 15-219 226-33 28-80 66-104 85-77 63-98 84-134 139-42 62-47 116-19 194 16 45 16 50-1 100-11 28-29 75-42 103s-24 58-24 67c0 26 18 29 39 8 40-40 141-51 155-16 10 28-6 45-103 111-320 216-492 345-616 463-22 21-50 43-61 49-12 6-29 27-38 46s-31 46-49 61c-17 14-45 43-62 65-16 21-59 75-95 120-130 161-140 175-140 186 0 6-23 30-50 53-28 23-59 59-71 79-11 20-31 52-44 71-14 19-25 38-25 43 0 6 14 22 32 36 107 91 126 127 89 173-12 13-31 37-43 53-13 16-64 72-114 125-89 93-151 189-140 216 6 17 91 45 135 45 35 0 120-35 151-62 9-7 26-26 38-43 28-35 140-125 158-125 11 0 64-65 120-147 49-72 139-160 253-246l53-41 29 32c16 18 29 41 29 51 0 26-64 96-105 115-41 20-41 21-15 64 23 37 25 37 74 17 47-20 83-91 102-199 8-44 18-84 23-89 10-10 81 23 100 47 7 9 28 25 47 37 31 19 35 19 50 5 26-27 62-29 147-11 45 10 97 18 115 19 34 1 34 1 76-124 50-152 80-204 166-295 36-38 101-110 144-158 90-100 132-126 258-157 149-37 157-40 193-78 115-122 135-139 195-163 119-47 220-158 220-242 0-38 33-100 64-120 14-10 51-27 82-38 46-17 61-19 81-10 21 10 24 16 19 39-12 52-34 218-41 307l-6 89-136 131c-74 71-165 166-203 210-86 102-372 385-407 404-20 10-49 12-115 7l-87-6-11 38c-14 50-13 72 5 106 19 36 14 45-99 171-195 216-268 277-338 279-18 1-28 7-28 16-1 8-9 33-20 55s-19 46-20 53c-1 38-164 293-234 366-17 18-36 55-47 95-20 71-47 106-97 126-34 15-37 19-46 76-6 32-12 39-51 54-49 18-89 62-101 110-16 65-47 122-90 163-24 23-44 51-44 61 0 11 22 46 48 78 27 32 83 112 125 178 46 73 99 143 136 178 59 56 60 57 119 57 56 0 65-4 143-57 46-31 104-73 129-93 25-21 97-70 160-110 124-77 160-106 160-127 0-67 147-203 219-203 34 0 71-22 92-56 20-33 123-133 165-161 30-19 51-11 64 23 9 24 6 35-31 88-69 100-120 167-180 236-85 99-94 119-95 233-1 110-9 129-82 182-22 17-41 36-41 42-1 7-16 19-33 27-18 7-92 73-165 145s-137 131-142 131c-13 0-121 131-121 147 0 17 72 17 88 1 19-19 22-5 13 53-8 44-21 71-65 131-48 65-65 79-117 103-34 15-80 30-102 33-66 8-103 38-179 141-139 188-195 241-252 241-31 0-31 4-6 95l19 70-35 31c-19 17-34 36-34 43 0 6-10 16-23 22-17 8-33 6-67-10-24-11-45-19-46-18s1 21 6 45c6 37 5 45-13 57-28 20-16 40 42 69 72 37 73 53 9 149-67 102-80 132-72 163 6 23 9 21 46-38 22-35 47-75 56-90 21-34 34-35 56-5 9 12 19 18 22 12 2-5 20-44 38-85 33-74 34-75 72-78 32-2 44 2 64 23 24 26 24 26-3 133-16 59-42 135-59 169-26 52-30 69-25 108 4 25 13 58 21 74 9 16 24 62 35 102 20 74 20 74-9 134-56 118-274 410-384 514-40 38-43 55-21 107 27 65 19 78-157 262-45 47-58 67-58 91 0 17 4 31 9 31s17 3 26 6c12 5 65-42 196-172 99-99 187-191 195-206 28-54 78-100 142-129 63-30 68-31 121-19 31 6 70 10 86 8 29-3 30-5 37-72 4-39 13-86 21-105 8-20 19-49 23-66 6-18 21-35 37-43 35-17 64-81 65-141 1-26 8-51 18-62 16-18 17-18 56 2 40 21 78 70 78 103 0 11-11 38-24 60-12 23-31 73-41 111-40 159-58 200-78 172-6-8-7-6-3 5 3 10 1 20-5 23-5 4-7 10-4 15s-3 16-12 26c-11 10-22 45-28 83-9 57-13 66-33 69-18 3-34 27-78 115-61 122-232 387-311 482-27 33-73 99-102 146-28 48-58 92-66 99-25 20-18 39 47 129 94 131 112 177 116 297 5 113-11 259-34 313-26 62-62 91-111 91-30 0-49 6-63 20-21 21-61 104-73 150-4 14-17 37-29 52-13 14-28 34-34 44s-15 14-23 10c-8-5-9-12-2-20 12-15-3-41-18-32-6 4-11 14-11 22s-4 14-10 14c-5 0-10-5-10-11 0-27-86 49-354 316-160 160-331 324-380 365-94 80-147 126-237 205-31 28-88 77-125 110-426 373-778 805-970 1188-85 171-116 211-175 228-28 9-42 21-54 45-9 20-46 56-88 88-186 139-242 197-231 240 3 12 0 34-5 50-16 41-89 123-116 130-37 9-131 92-145 128-8 18-31 54-52 79-21 26-38 53-38 60-1 32-102 116-151 126-22 4-58 28-104 71-38 36-92 82-120 103-100 75-200 165-227 204-46 64-78 132-78 163 0 34-36 72-68 72-18 0-85-42-221-138-15-10-22-8-47 13-16 14-41 25-55 25-33 0-139-46-139-60 0-18 42-72 116-150 71-74 94-117 94-172 0-21-7-32-25-40-14-6-26-9-28-7-41 57-83 109-89 109-4 0-20 19-34 43-15 23-30 44-34 47s-17 24-29 47c-11 23-30 47-41 53-10 6-22 26-26 45-4 21-23 51-53 82-60 61-110 140-146 227-25 58-41 80-117 150-101 92-142 114-230 123-55 5-65 3-81-15-25-28-16-50 38-91 48-36 52-46 31-74-13-17-15-16-37 15-12 18-44 55-71 82-45 44-52 48-86 43-20-4-47-17-60-31-22-22-25-32-24-107 1-46 7-97 14-114 6-16 71-93 143-170s148-158 168-180c27-28 35-45 31-60-4-11-6-22-6-25-1-48 7-66 45-108 50-55 105-125 132-167 10-16 25-35 33-41 13-9 11-16-15-42-17-18-33-32-37-32-26 0-142 123-209 222-72 107-132 170-226 242-41 30-94 79-118 108-25 29-86 96-137 149-50 53-107 115-126 137-114 134-230 239-326 296-141 83-212 145-395 342-174 185-219 227-275 250-51 21-81 11-146-49-73-68-81-102-36-153 36-40 135-122 213-174 93-62 190-137 240-186 40-39 56-65 78-125 14-41 46-105 71-141 36-55 45-77 50-130 10-92 53-201 104-260 24-28 54-72 67-97s42-66 64-91 41-49 41-55c0-5 13-24 29-40 43-47 50-66 60-162 15-146 10-138 236-338 83-73 163-148 179-166 16-19 45-51 64-71 34-36 35-37 18-63-9-14-28-31-42-37-30-14-50 3-134 112-76 99-404 421-502 494-43 32-78 62-78 67 0 13-75 49-102 49-13 0-36-9-53-20-31-21-85-27-85-10 0 5 18 21 40 35s40 31 40 38c0 6-22 35-48 63-26 27-72 79-102 115-30 35-76 85-102 111-27 25-48 50-48 54s-21 30-47 59c-27 28-65 70-85 93-58 63-164 81-209 35-17-17-17-20-2-50 8-18 33-48 55-65 99-82 116-103 134-163 9-33 22-68 28-77 7-13 7-21-1-29s-22-4-52 15c-45 29-83 33-101 11-16-20-7-43 41-95 56-62 72-102 60-145-5-19-7-44-4-56 7-26 71-86 122-114 45-26 52-51 16-58-35-6-165 60-220 113-60 56-149 125-198 155-36 21-49 24-70 16-23-9-26-15-23-55 2-40 7-48 39-71 21-14 43-30 50-36s30-20 51-32c36-20 78-73 70-88-2-4 3-12 11-19 19-16 19-50 0-50-8 0-23 8-32 18-34 35-75 87-85 109-14 28-25 32-117 40-103 8-148 30-207 98-27 31-76 85-109 118-33 34-116 134-185 222s-141 178-160 201-53 64-75 90c-120 146-185 198-295 234-66 21-66 21-170-15-58-20-113-39-122-42-28-8-22-18 38-70 116-99 141-123 141-137 0-19-47-30-95-21-50 8-160-26-193-61-24-26-24-26 16-60 82-70 85-73 81-96-3-13-5-26-5-30-2-12-84-56-128-67-23-6-99-16-170-21-161-12-286-33-435-72-69-18-126-28-141-24-59 15-120 79-180 192-33 60-67 118-78 128-18 19-19 19-66-11-27-16-64-35-82-41-19-7-39-19-46-28-10-15-17-11-62 28-28 25-75 59-106 77-57 32-88 35-184 15-65-13-14-142 107-268 42-45 80-92 83-106 16-66 129-195 271-310 38-30 89-73 115-96 70-62 78-65 123-42 21 11 40 19 42 17s21-33 42-69 79-108 128-160c71-74 110-127 174-237 46-78 104-167 128-199 30-38 42-63 38-73-4-9-9-35-12-59-6-65 39-147 147-267 64-70 114-140 168-233 180-307 266-448 286-471 12-13 45-36 73-52 69-39 88-62 80-94-4-14-17-31-30-37-31-14-53 2-168 119s-148 165-254 373c-80 158-96 182-164 251-50 51-85 78-106 82-16 3-65 29-108 58-58 40-98 78-158 153-45 56-93 112-107 126s-40 41-57 60c-71 82-232 226-419 375-305 243-465 412-585 614-114 194-269 381-407 494-93 75-352 368-488 551-109 147-125 173-146 236-49 146-83 177-163 146-62-24-82-11-157 102-107 163-105 162-214 110-86-40-152-47-207-22-41 18-41 18-65-11-37-45-28-92 39-195 30-47 62-98 70-115 9-16 41-82 73-145s82-152 111-196c30-45 54-86 54-92 0-7-11-19-25-28-25-16-27-16-51 7-15 13-45 62-69 109-40 80-89 137-175 205-14 11-32 33-40 48-24 48-86 97-123 98-17 0-52 2-77 4-72 5-118-29-140-104-7-24-4-48 10-94 11-34 20-70 20-79 0-26 89-111 241-231 144-113 173-149 167-210-2-24-9-34-31-41-31-11-54-2-71 30-44 83-79 125-106 131-23 4-39 21-75 78-64 102-69 106-95 54-22-42-22-42 1-108 25-74 46-107 134-202 33-36 89-101 125-144 102-123 338-349 560-535 36-30 67-57 70-60s43-39 89-80l83-75-6-120c-7-120-7-120 32-181 49-75 87-114 205-207 116-92 152-117 167-117 22 0 174-77 192-96 9-11 22-48 28-83 18-100 90-221 123-208 24 9 137-108 176-182 19-36 48-79 65-96 47-47 95-150 102-220 5-55 4-63-25-105-17-25-31-51-31-58s-64 42-142 110c-183 159-422 361-495 418-90 72-193 169-263 250-63 73-92 111-247 321-87 118-187 218-265 265-66 40-88 40-132-1-15-14-33-25-40-25-18 0-43 29-62 75-49 119-133 197-210 197-44 0-71 25-98 95-41 103-70 131-384 381-73 58-278 250-502 469-207 202-212 206-495 314-212 81-326 136-404 195-36 27-84 63-107 79-23 17-95 80-160 142-66 61-146 133-179 160-56 47-375 354-489 471-28 29-67 62-86 73s-48 28-65 38c-61 38-73 37-119-12zm3997-1891c48-57 136-159 196-226 61-67 119-141 130-164 21-43 26-100 13-169l-7-37-78 76c-130 126-185 201-322 434-33 56-45 86-45 117 0 44 8 73 20 73 4 0 46-47 93-104zm-4543-1441c52-45 147-129 211-186 63-57 178-159 255-226s155-138 172-159c18-21 76-85 130-143 53-58 120-131 148-161 60-65 200-232 233-277 44-60-4-86-70-38-19 14-72 65-119 113-48 48-151 149-230 224-136 130-327 331-402 424-119 149-172 210-262 303-129 134-137 142-163 179-48 65-30 55 97-53zm4674-779c67-67 164-163 217-215 110-106 140-150 120-175-22-27-37-19-98 51-32 36-108 123-168 192-184 210-235 271-235 282 0 21 47-18 164-135zm1210 13c28-33 42-72 32-88s-63-23-85-11c-26 13-29 75-5 108 20 29 27 28 58-9zM2233 7801c18-17 53-67 78-113 24-46 66-105 93-133 58-58 68-91 48-163-17-62-12-70 71-124 42-27 61-33 107-33 37 0 66 6 83 18 33 22 91 22 127 1 36-22 90-112 97-163 5-34-2-55-43-136-26-52-52-95-56-95-16 0-192 128-343 250-24 19-64 46-89 60-62 34-73 21-45-54 12-31 20-59 17-61-3-3-35 4-71 15-82 26-127 73-191 203-68 138-70 223-12 460 25 100 67 122 129 68zm15012-2687c33-25 34-27 21-53-32-62-57-69-132-41-26 10-26 11-9 38 23 36 67 82 78 82 4 0 24-12 42-26zm781-3131c31-27 82-71 113-98 31-28 70-61 88-73 32-22 36-52 8-52-35 0-107 43-162 98-34 34-75 68-90 76-33 17-77 72-68 86 14 22 56 8 111-37zm-5465-439c63-32 199-146 309-260 112-116 247-279 276-336 13-24 12-28-3-36-10-5-25-7-33-4-34 12-542 474-573 521-24 37-47 94-47 117 0 19 34 18 71-2zM9650 14930c-12-7-12-13-4-27 16-27 29-51 64-123 18-36 40-74 49-85 10-11 24-31 33-45 29-48 112-146 221-263 106-112 109-115 138-105 16 5 30 17 30 26 6 64-13 145-41 177-10 11-25 34-34 50-9 17-45 64-81 105s-79 93-96 115c-45 59-109 125-153 157-40 29-96 37-126 18zm8705-12500c-14-44 7-97 62-153 22-23 194-107 218-107 22 0 75 38 75 53 0 22-181 158-267 201-63 31-80 32-88 6z"/>
  </g>
 </svg>
 <svg width="1976" height="1636" version="1.0" viewBox="0 0 1976 1636">
  <g transform="matrix(.1 0 0 -.1 0 1636)" fill="#767476">
   <path d="M2063 16216c-44-32-176-270-207-375-9-30-16-78-16-107 0-47 4-56 34-86 50-49 67-62 111-87 22-13 45-31 52-41s30-29 50-41c21-12 74-48 118-80s148-99 230-150c194-119 415-268 421-284 3-7 26-26 52-43 129-84 255-260 272-380 9-64 57-147 94-162 11-5 46-34 76-66 66-68 128-109 253-169 104-49 213-138 488-397 151-142 183-183 154-195-17-6-140 81-280 199-214 178-461 366-529 401-45 24-51 25-77 12-15-8-31-24-34-36-7-21 31-66 180-214 165-165 392-420 480-540 75-102 218-278 267-330 72-75 275-330 298-374 28-55 28-108 1-152-16-25-21-51-21-99 0-60 4-71 42-130 24-36 116-139 208-231 91-91 185-186 210-212l45-47-40-36c-35-31-45-34-75-29-59 11-125 56-228 155-243 235-505 458-790 672-180 136-236 168-291 168-22 0-181-68-181-78 0-13 143-162 224-235 308-274 702-660 691-676-12-20-47-11-88 24-236 196-538 478-714 665-103 109-236 266-265 311-17 27-17 27 38 12 50-13 61-12 107 3 95 31 157 69 157 98 0 7-21 27-46 45l-46 32-44-47-43-47-18 32c-65 117-115 197-139 222-16 16-61 48-102 70-40 22-95 57-121 77-161 123-501 404-572 471-87 83-104 91-195 91-50 0-90-28-99-70-5-24 1-40 34-88 41-60 72-89 170-156 81-55 147-119 242-234 127-155 146-182 165-239 18-53 18-53-8-80l-27-26-57 48c-56 48-68 57-158 123-58 42-97 37-150-17l-36-37 42-34c143-114 356-353 344-386-8-22-37-17-86 16-53 35-66 37-80 9-15-27-4-43 129-189 58-65 140-155 181-200 144-158 150-168 138-196-13-28-11-28-66-9-42 15-83 42-228 152-39 29-74 53-78 53-11 0-45-43-46-57 0-21-33-83-44-83-18 0-103 101-129 154-34 69-118 145-210 190-110 54-180 104-339 243-222 195-254 222-352 301-50 40-131 105-180 145-135 108-196 147-234 147-24 0-35-6-43-24-14-31 5-71 69-148 26-31 70-84 97-119 28-34 67-82 87-106 21-24 43-54 50-66 10-19 138-180 253-317 49-58 166-188 299-329 64-69 108-127 127-166 33-69 35-91 11-122-17-23-17-23-103 42-84 62-285 244-519 468-63 60-126 117-140 125-14 9-45 34-70 55-135 117-167 146-468 421-174 159-208 173-284 121-28-19-50-25-91-25-79 0-95-23-146-217-13-48-93-143-121-143-22 0-60-45-60-70 0-10 7-34 15-53 13-32 20-37 67-46 29-5 69-13 88-16 19-4 64-8 100-9 100-3 100-4 100-106 0-143-9-155-115-164-109-9-134-34-148-151-12-98-19-105-103-105H0v-79c0-71 3-83 26-110 38-45 60-55 145-61 66-5 91-14 201-68 70-33 133-71 142-84 26-37 20-81-19-134-62-87-68-104-70-189-1-44-6-128-10-186l-7-107 53-40c74-54 117-75 147-69s98-16 124-40c21-19 24-56 5-71-6-5-31-15-54-21-35-10-43-17-53-47-26-79 11-188 88-260 38-35 56-43 112-53 59-11 72-18 107-54 60-63 161-224 246-392 43-86 130-205 224-305 98-105 193-220 193-234 0-7-14-50-31-97-29-79-31-90-26-183 4-79 2-102-9-114-13-13-24-6-92 59-102 98-344 308-446 387-129 100-292 192-342 192-10 0-63 46-119 103-114 115-164 149-189 128-24-20-19-58 12-99 16-20 55-73 88-117 32-43 83-105 113-137 84-91 94-116 95-236 1-104 1-104 41-139 22-20 59-53 82-74 24-22 48-39 54-39 25 0 99-71 99-95 0-19 10-29 43-44 24-11 101-76 186-158l143-138-35-52c-20-29-45-78-56-108-20-53-20-58-4-128 30-135 82-292 113-341 17-27 55-79 85-115 66-82 115-162 146-238 34-86 195-336 278-433 88-103 138-175 235-335 53-88 124-191 156-230 62-73 190-268 190-288-1-7-6-22-13-34-13-23-13-23-85 25-40 26-104 67-142 92-85 55-130 99-213 210-87 118-108 153-105 186 4 68-5 89-109 242-268 396-336 482-382 482-11 0-31-14-46-32-33-39-121-221-168-349-67-180-64-254 17-399 135-243 422-612 547-706 14-10 60-76 103-147 49-80 95-143 126-170 26-23 60-66 74-95 37-74 90-129 157-163 71-35 94-67 109-149 18-102 37-135 147-264 95-110 181-225 212-283 6-13 19-64 27-115 16-93 55-201 118-326 19-37 54-117 79-179 75-182 147-312 215-385 33-36 47-35 93 7 43 39 65 43 85 18 20-27 17-73-12-164-38-122-37-130 35-239 34-52 82-137 107-188 56-118 81-136 173-128 87 7 127-11 141-66 9-31 8-51-4-93-9-29-16-80-16-113 0-74 19-101 100-142 75-38 119-91 182-219 37-77 67-123 109-166 31-33 75-89 96-125 53-86 76-101 163-109 71-7 71-7 134-76 35-39 83-95 107-125 32-39 64-64 109-87 36-18 72-43 81-55 9-13 28-61 42-108 43-139 109-225 257-335 36-27 103-83 150-125 170-153 257-227 355-305 220-173 359-321 429-455 32-61 101-140 142-163 27-15 117 21 224 90 58 38 122 82 142 98 52 43 79 109 73 174-6 61-7 65-96 202-38 58-69 111-69 118 0 6 7 22 16 36 8 13 18 49 21 80 6 60 25 81 60 68 25-9 40-32 48-71 8-42 24-48 88-33 89 19 123-7 104-79-13-46-3-99 26-138 118-162 168-219 252-283 50-37 126-100 169-139 79-72 79-72 135-68 34 3 91 19 146 42 50 21 133 52 185 69 155 49 531 206 559 233 12 11 10 18-13 48-15 20-33 36-41 36-7 0-44-21-81-46s-86-54-108-63c-50-22-116-33-116-20 0 5-16 27-36 49-28 30-44 40-68 40-55 0-104 20-143 56-21 20-68 56-104 79-37 24-92 66-124 95-57 52-57 52-118 47-34-3-76-8-93-12-56-12-48 12 26 85 63 62 70 72 60 90-15 28-171 143-238 177-49 24-56 25-95 13-40-12-42-11-63 15-39 49-55 135-34 176 17 30 55 23 112-24 29-23 87-68 129-100 87-66 112-70 214-35l63 22 99-43c282-124 317-149 383-270 50-95 125-187 158-197 32-9 77 25 136 104 39 52 47 68 38 81-58 84-76 128-74 180 2 64 37 133 102 201 62 65 120 94 176 85 57-8 80-28 165-143 40-53 87-111 105-129 32-32 64-114 64-165 0-41 27-117 92-263 63-140 63-140 117-167 30-16 69-28 86-28 70 0 127-32 278-154 217-176 407-317 479-355 69-37 103-38 125-2 11 18 8 26-33 72-46 52-46 52-38 103 5 28 9 76 9 106 0 63-20 97-83 140-37 25-132 168-132 198 0 24 71 81 154 123 87 43 119 48 155 20 32-24 22-47-40-94-45-34-50-42-44-65 10-41 22-50 83-63 31-7 62-17 68-23 19-19 94-206 101-251 5-39 3-44-37-82-45-44-50-76-14-81 15-2 36 14 73 57 29 34 83 83 119 111 69 51 435 240 466 240s55-20 96-80c29-43 47-60 63-60 28 0 133 109 170 178 32 58 32 87 7 261-9 65-9 97 0 145 24 123 24 124-6 168-16 22-53 59-82 80-59 44-73 70-76 143-1 50-1 50 48 53 95 6 209-51 338-168 68-62 68-62 78-35 6 15 17 59 26 98 9 40 22 78 28 85 19 19 145 27 192 12 21-7 71-36 109-65 39-29 111-76 160-105 254-149 380-237 555-390 88-78 277-230 284-230 2 0 14 16 26 35 17 28 27 34 42 29 12-3 24-1 28 7 6 9 47-15 147-86 182-130 408-297 457-337 37-30 192-97 227-98 9 0 24 17 34 41 24 52 15 68-75 140-85 68-112 106-118 169-5 53 2 60 34 35 42-32 90-4 129 75 10 19 18 36 20 37 1 2 64-26 141-60 191-87 270-107 342-88 43 12 54 28 87 129 9 28 19 52 21 52 4 0 117-76 226-152 41-28 125-62 241-98 68-21 68-21 98 0 16 12 29 29 29 38-1 42-92 180-205 309-454 519-466 533-534 651-44 76-60 117-65 164-2 21 1 25 13 18 25-13 81-76 169-188 85-109 151-181 430-467 220-226 475-460 626-572 51-39 136-23 136 26 0 7-74 94-164 194s-183 207-207 239c-24 31-72 90-106 131-83 101-193 324-193 392 0 22 13 19 106-25 47-22 94-40 105-40 41 0 144-32 214-66 89-44 149-88 266-191 161-143 266-183 485-183 131 0 194 13 277 58 41 22 50 24 71 13 45-24 327-260 546-456 146-130 217-185 242-185 20 0 238 206 238 224s-65 76-189 170c-71 53-119 97-127 115-13 31-17 34-209 177-144 107-195 151-195 171 0 7 7 13 16 13 31 0 263-104 534-240 151-76 290-141 309-145 42-9 127 28 137 59 7 23-25 53-91 86-49 24-92 57-84 64 5 5 149-22 206-39 15-5 28 0 43 15 26 26 22 32-55 83-56 37-75 61-59 77 7 7 31-1 77-24 50-25 87-36 142-41 44-4 79-12 86-21 6-8 17-14 24-14 17 0 81 72 90 100 9 30-29 68-175 178-141 105-147 109-455 345-349 268-431 349-395 392 20 24 36 18 102-41 72-65 167-114 219-114 45 0 44 0 208-182 150-168 174-188 261-224 35-14 84-40 110-57 175-118 219-149 235-167 10-11 23-20 30-20 14 0 65 52 65 67 0 5-13 30-30 54-16 24-30 56-30 70 0 32-21 54-118 125-42 32-108 83-147 114-38 30-107 82-152 114-78 56-97 76-73 76 47 0 392-242 574-402 48-43 93-78 100-78 6 0 85 40 176 88 123 66 165 94 165 107 0 18-136 138-336 295-132 104-184 198-159 290 28 106 28 102-32 243-16 38-27 75-24 83 7 18 30 18 48 1 22-22 74-39 109-35 26 2 35 8 37 25 4 24 9 20-199 163-125 87-346 250-409 302-122 100-210 181-210 192 0 7-27 41-60 77-101 107-106 112-137 159-17 25-43 56-58 70s-43 50-63 80-57 75-83 100-54 59-63 75c-9 17-28 45-41 64-14 19-25 42-25 52 0 11 24 36 56 61 56 42 74 69 74 111 0 14-46 71-131 162-128 137-185 221-177 263 9 48 154 69 233 33 22-10 58-38 80-62 55-59 136-126 168-138 15-6 37-27 50-48s32-45 41-53c10-7 31-34 48-59 34-52 188-205 248-246 46-32 64-28 86 19 17 34 17 34-17 76-19 22-51 50-71 61-44 22-45 30-17 75 21 34 33 41 43 25 3-4 19-11 35-14 22-5 36-17 49-44 28-55 50-124 58-180 8-66 18-76 54-58 16 8 49 33 75 55 25 22 50 40 55 40s24-9 43-20c35-21 35-21 138 1 57 12 112 22 123 23 15 1 27-24 65-139 53-158 78-201 195-326 45-47 108-116 142-152 70-77 111-97 264-133 96-23 180-62 180-85 0-13 111-129 124-129 25 0 137-61 175-96 39-35 105-146 94-158-3-2-2-19 2-36 11-50 58-95 131-124 62-25 68-26 90-11 14 9 23 19 20 24-12 19-53 339-49 380 2 20-55 83-155 171-46 41-127 126-181 189-54 64-166 182-248 262-167 164-173 167-297 154-65-7-65-7-81 31s-13 86 7 111c26 32-23 94-257 329-82 83-107 103-140 109-22 5-45 8-51 7s-15 13-21 30c-36 108-68 177-108 236-106 156-137 199-164 227-16 17-35 55-44 89-22 78-40 104-92 127-39 17-43 22-49 66-6 45-9 49-50 66-61 25-82 52-115 145-24 66-38 91-80 131-28 27-51 54-51 59s26 43 59 83c32 41 88 122 124 180 161 256 235 290 395 179 42-30 104-75 137-100 33-26 113-80 179-121 112-70 119-76 142-128 14-30 36-70 50-88 27-36 117-93 147-93 36 0 84-35 160-116 43-45 94-93 114-105 35-22 36-22 49-4 21 29 17 63-14 103-16 20-53 71-83 112-29 41-75 98-100 125-26 28-59 72-73 99-23 43-26 61-26 147 0 99 0 99-42 136-23 21-56 53-74 71-18 17-38 32-44 32s-44 33-84 73c-39 39-118 115-174 167s-116 112-133 133c-33 41-45 76-26 78 30 3 73-4 82-12 19-19 22-7 10 49-9 42-26 75-66 129-49 67-60 76-128 104-43 18-82 28-96 25-35-9-96 45-189 167-47 62-97 124-110 139-36 41-95 78-122 78-29 0-30 16-9 86 21 71 19 90-14 114-17 11-33 29-36 40-8 24-57 27-95 5-39-22-42-19-35 34 5 39 3 49-9 54-27 11-19 43 14 57 48 20 80 49 80 73 0 12-18 48-39 79-22 31-49 75-61 98-21 41-24 89-6 93 6 1 31-33 57-77 63-104 63-104 93-70 23 27 25 28 31 9 3-11 15-39 26-63 10-23 19-48 19-56 0-20 34-46 59-46 30 0 58 16 71 40 17 31-52 267-93 318-16 20-8 101 14 144 11 21 27 70 35 108 15 65 15 73-1 113-21 53-94 162-185 277-20 25-46 62-58 82-13 20-26 38-30 40s-27 28-52 58-58 66-73 79c-31 26-30 19-12 142 7 47 7 47-104 165-98 106-110 123-111 156 0 42 19 52 60 32 34-17 354-342 373-379 18-35 88-105 108-109 8-1 34-12 58-25 43-22 45-22 101-7 104 29 117 21 118-77 0-38 7-71 21-98 12-22 21-48 21-58 0-11 15-29 35-41 43-26 65-75 65-141 0-38 4-49 16-49 10 0 14-6 10-15-16-44 83 10 109 59 19 34 19 34-13 103-17 37-40 104-51 148-27 112-38 136-57 133-12-2-18 6-21 27-2 16-10 37-17 45-8 8-17 38-22 65-4 28-8 53-10 58-1 4-2 11-3 16 0 5-11 11-23 13-18 2-36 29-83 119-80 155-174 304-264 419-41 52-96 129-122 170-27 41-62 92-79 114-16 21-30 41-30 45 0 3 29 47 65 96 85 118 105 161 118 251 12 80-2 275-25 346-20 66-56 99-113 105-28 3-58 12-67 20s-33 53-52 100c-20 47-47 99-61 115s-25 34-25 39-5 9-10 9c-6 0-8-10-4-24 3-14 1-27-6-31-32-19-112 48-390 325-157 157-323 317-369 355-46 39-111 94-145 124-34 29-86 75-116 101-132 116-331 299-401 369-295 298-559 650-696 932-79 162-116 212-171 230-42 14-57 26-66 57-4 12-28 36-54 54-160 110-293 244-262 263 27 16-56 142-113 171-63 33-125 87-153 135-15 27-32 49-36 49s-8 6-8 13-9 23-21 35c-11 12-25 36-31 52-13 39-98 106-145 115-27 5-58 26-112 77-42 39-92 82-111 97-19 14-53 41-75 61-22 19-60 51-83 70-69 55-156 194-153 242 1 31-29 68-56 68-18 0-88-44-181-114-45-33-57-38-70-28-10 7-31 19-48 28-30 16-35 16-90-7-33-12-63-26-67-30-13-10 47-91 116-155 45-42 66-71 75-99 26-93 25-103-17-125-23-12-27-10-40 11-9 13-38 49-66 79-63 69-100 118-109 148-4 12-19 34-33 48s-29 41-35 61c-5 20-31 59-57 87-67 73-106 131-138 210-24 60-39 80-121 155-106 98-116 104-193 121-67 15-99 9-118-21-13-21-10-26 44-74 58-51 58-51 40-73-19-21-19-21-95 60-82 86-82 86-150 54-23-10-25-17-26-76 0-36-3-77-7-92-13-51-8-58 332-420 27-30 32-41 23-50-25-25-14-76 26-121 69-77 129-152 142-177 7-14 19-29 26-33 8-4 14-14 14-21 0-16-52-66-68-66-22 0-166 153-217 230-64 96-125 161-201 216-33 24-116 103-185 176-68 73-137 147-154 165-16 17-45 49-64 70-130 149-231 241-326 298-151 91-208 142-531 484-83 88-120 111-180 111-30 0-44-8-86-50-32-32-48-55-44-65 3-8 1-15-5-15s-8-7-5-17c4-9 1-20-5-24-20-12 71-92 242-214 212-150 278-215 314-308 16-39 48-101 71-137 27-41 46-82 50-110 7-50 36-159 54-205 6-16 29-51 50-76 21-26 53-70 70-100 18-29 47-71 66-93s34-44 34-49 16-27 35-48c38-42 65-120 64-185-2-56 19-112 56-153 16-18 84-81 150-139 160-142 285-271 285-295 0-17-52-67-69-67-23 0-62 36-114 105s-435 450-487 485c-19 13-57 44-85 70-72 68-102 76-176 45-32-14-69-25-81-25-21 1-20 3 13 33 19 17 44 37 55 43 18 10 14 16-47 81-36 38-89 99-118 134s-68 80-87 99c-66 68-107 115-145 166-44 60-89 84-157 84-86 0-94-42-21-117 22-24 44-43 49-43s27-19 49-42c39-39 67-101 55-120-3-5 2-20 11-34 31-48-7-73-56-36-35 27-58 33-80 22-31-17-23-38 39-102 57-60 57-60 55-138s-2-78 41-117c24-21 59-47 77-58 46-28 49-51 7-59-26-5-48 1-103 28-38 20-86 49-105 66-19 18-59 50-88 73-121 95-157 118-182 115-26-3-27-7-18-77 3-24 64-76 132-111 17-9 40-35 52-57 11-22 30-54 42-70 29-41 28-45-15-41-31 3-42 11-82 64-25 33-50 68-56 77-7 13-34 19-102 26-109 11-153 32-212 98-23 26-66 73-95 103s-100 114-156 185c-57 72-107 132-110 135s-23 28-45 55c-22 28-69 84-105 125s-77 91-91 110c-46 61-92 100-155 130-98 47-125 48-250 4-60-20-111-39-113-40-8-7 42-58 108-109 78-61 94-83 81-106-7-10-27-13-81-11-87 3-166-18-198-52-21-23-22-26-8-47 9-12 33-32 54-43 21-12 42-33 47-49 9-24 6-31-24-62-46-47-101-62-290-80-171-16-287-35-429-71-122-31-149-31-197 5-59 43-77 66-142 186-41 77-66 111-80 113-11 2-41-11-68-27-26-17-53-31-60-31-6 0-23-10-38-21-27-22-27-22-64 14-20 20-64 52-96 71-53 32-68 36-128 36-84 0-112-20-98-69 17-59 64-131 129-198 44-45 79-92 100-137 35-71 135-182 260-286 30-25 79-67 109-94 51-45 58-48 96-43 22 3 45 12 51 20 12 16 24 2 79-95 14-26 62-84 106-130 82-85 113-128 215-301 31-54 75-119 97-144 33-38 38-51 32-72-15-54-9-115 16-165 14-27 69-99 123-160 64-73 122-153 171-236 41-69 113-192 161-274 95-161 149-229 203-252 84-35 99-115 26-130-28-5-39 2-122 81-123 117-177 192-278 391-120 236-176 307-283 355-88 40-180 104-219 153-18 23-48 61-68 86-70 88-266 290-352 362-48 41-143 118-211 172-212 169-421 361-421 386 0 3-8 15-18 26-49 54-95 118-146 202-108 181-199 294-362 449s-385 400-481 531c-31 42-75 100-98 127-50 59-75 106-109 205-40 112-77 142-143 115-75-32-85-25-188 132-33 50-70 96-82 102-26 12-55 4-133-35-67-33-128-38-176-13-43 21-54 18-78-22-26-44-16-76 62-198 38-58 74-122 82-141 26-65 113-224 163-299 43-63 48-78 41-100-22-62-79-28-134 81-54 107-71 130-138 184-31 25-73 69-93 97-47 69-84 87-179 87-83 0-106-12-134-67-20-40-20-78-1-133 8-23 15-52 15-64 0-28 79-104 243-236 71-56 137-116 148-134 28-45 25-101-5-122-21-13-29-14-52-2-16 7-32 26-37 43-14 43-72 112-101 119-18 4-41 31-77 86-28 44-57 80-63 80-17 0-36-43-36-80 0-66 63-177 141-250 15-14 56-61 90-105 105-133 362-382 586-569 48-40 128-111 176-158 89-84 89-84 82-129-3-24-7-78-8-120-2-69 1-79 28-120 74-109 281-283 395-330 161-67 184-86 200-166 6-32 16-73 21-90 13-41 77-119 95-115 33 7 214-207 214-254 0-6 13-20 28-31 44-32 103-154 109-223 5-53 2-65-27-117-40-72-39-71-53-53-7 9-48 47-93 85-44 39-145 126-225 195-79 69-200 170-269 225-209 167-331 299-490 529-57 81-163 207-221 263-37 34-146 103-164 103-6 0-30-16-52-35-24-20-48-33-56-29-8 3-27 29-42 57-74 139-94 165-147 191-29 14-66 26-83 26-40 0-55 17-94 105-37 82-79 128-218 237-57 44-103 84-103 88s-18 19-41 34c-50 33-253 220-496 457-101 97-206 192-235 212-57 37-64 40-338 147-204 79-292 123-360 179-25 21-58 46-75 56-16 11-64 51-106 90-42 38-103 94-135 122-174 155-358 326-514 479-96 93-195 183-218 198-55 35-100 42-129 22zm10237-1132c0-16-16-19-25-4-8 13 4 32 16 25 5-4 9-13 9-21zm-6289-736c30-35 118-136 196-224 78-89 151-180 162-202 22-42 26-94 15-174l-6-45-61 56c-100 93-207 231-299 385-75 125-88 152-88 190 0 48 7 76 20 76 4 0 32-28 61-62zm-4496-1494c66-58 199-174 295-257s213-188 259-232c92-89 316-331 462-500 144-168 156-188 123-216-13-11-21-10-48 5-47 25-682 656-756 751-95 120-133 165-270 309-175 184-224 246-192 246 4 0 61-48 127-106zm4694-795c322-313 334-327 296-369-10-12-23-16-31-12-7 4-46 46-86 92-40 47-118 137-173 199-55 63-124 141-152 174-51 57-65 87-42 87 6 0 91-77 188-171zm1181 39c16-22 30-53 30-69 0-24-5-28-41-34-52-9-73 9-72 60 1 36 26 85 43 85 6 0 23-19 40-42zM2258 7776c16-19 47-68 68-108s60-94 87-119c56-55 66-92 44-158-9-24-13-50-10-57 3-8 32-32 65-54 52-35 68-40 116-40 36 0 69 7 98 22 40 19 47 20 83 8 48-15 70-38 105-104 37-70 34-107-20-217-25-52-47-96-49-97-5-6-126 80-265 188-136 105-214 155-229 146-6-4-1-30 12-66 12-32 18-62 14-66s-33 0-65 10c-44 14-68 30-108 71-54 57-116 171-133 245-19 83-10 199 28 340 5 19 12 47 15 62 4 16 18 34 34 42 33 17 64 4 110-48zm14987-2658c19-13 35-28 35-33 0-6-11-27-25-48-18-26-33-37-51-37-28 0-94 25-94 36 0 15 75 104 87 104 7 0 29-10 48-22zm822-3168c170-140 197-166 189-178-20-33-130 13-193 81-22 23-66 64-97 90-67 57-74 93-19 96 6 1 60-39 120-89zm-5487-400c3-4 34-29 69-55 163-120 511-513 511-577 0-36-48-21-112 35-96 82-355 315-435 391-70 66-113 132-129 200-7 29-7 29 42 21 27-4 51-11 54-15zM9668 14933c-19-5-24-28-9-38 5-3 30-45 54-94s58-106 74-127c16-22 45-61 65-87 35-46 151-178 233-264 35-36 43-40 64-32 22 9 23 13 19 72-2 34-11 73-19 88-38 67-57 96-94 140-22 26-65 77-95 114-87 106-172 194-206 216-31 19-51 21-86 12zm8699-12490c-4-3-7-25-7-48 0-67 37-105 163-170 66-35 115-54 126-50 27 8 66 54 55 63-49 44-212 156-261 181-69 34-67 34-76 24z"/>
  </g>
 </svg>
 <svg width="1976" height="1636" version="1.0" viewBox="0 0 1976 1636">
  <g transform="matrix(.1 0 0 -.1 0 1636)" fill="#3d3a3d">
   <path d="M2047 16194c-38-39-166-280-190-359-28-88-8-191 40-209 13-6 14-4 3 11-7 10 3 2 21-18 19-20 49-44 66-53 18-9 38-25 46-37 9-11 55-48 104-80 165-112 278-186 358-234 106-64 321-210 366-249 20-17 64-53 99-81 119-95 211-237 223-343 6-50 58-152 78-152 5 0 46-34 91-76 75-68 222-164 252-164 19 0 116-62 165-106 303-268 491-448 491-471 0-48-69-9-259 147-364 299-571 450-617 450-28 0-68-44-57-63 4-8 85-93 178-189 94-95 208-216 254-268s101-114 123-137c21-23 62-75 91-115 80-111 204-266 271-338 91-97 290-349 315-397 26-53 26-78 1-128-28-55-32-88-21-152 15-79 61-137 290-368 111-110 201-206 201-211 0-21-66-74-93-74-51 0-131 52-246 159-304 283-536 480-795 676-225 170-255 181-377 130-81-34-86-39-66-67 27-40 139-153 242-244 122-108 204-185 355-331 63-61 148-142 188-180 88-81 122-131 101-144-8-5-17-9-21-9-13 0-200 154-325 267-206 188-482 464-582 582-163 193-181 222-116 195 19-7 49-14 67-14 50 0 157 41 192 74l31 28-40 34c-22 19-45 34-51 34s-27-18-48-40c-20-22-40-40-44-40-9 0-68 95-107 173-35 68-59 90-172 157-95 56-130 82-328 245-81 66-161 130-178 141-18 12-82 69-143 126-111 105-111 105-184 112-70 7-73 7-102-20-45-44-45-65 0-126 50-67 89-103 177-163 108-73 162-131 347-365 70-90 85-173 36-204-13-8-26-2-65 30-50 41-99 80-162 126-53 40-99 38-147-7-37-35-37-36-18-54 10-10 67-62 126-115 87-79 157-157 232-261 14-19-1-45-26-45-13 0-43 14-67 30-34 23-47 27-57 19-36-29-30-37 398-507 26-29 48-59 48-65 0-24-31-58-43-49-7 5-25 12-42 16-29 7-160 96-240 163-61 52-75 45-121-59-9-21-22-38-29-38-20 0-101 93-130 150-36 70-107 138-186 178-35 17-92 49-127 70-69 41-80 51-467 385-71 62-159 135-195 162s-90 70-120 95c-119 100-172 134-214 134-40 1-41 0-44-35-3-33 7-48 100-164 135-166 162-202 195-250 88-126 306-381 512-600 184-195 231-285 182-346-18-23-18-23-112 48-80 61-415 364-530 481-20 20-60 55-89 77-28 22-68 55-89 72-20 18-103 92-186 165-82 73-159 142-170 153-48 50-233 215-269 239-48 32-80 33-131 1-28-17-55-24-90-25-28 0-60-7-72-15-23-16-55-93-68-160-3-21-14-53-22-70-21-42-94-115-114-115-10 0-28-14-40-31-20-28-21-34-9-70 7-22 18-44 25-49 17-14 179-40 250-40 90 0 95-8 86-139-9-128-20-141-115-141-107 0-137-32-150-164-8-73-18-86-65-86-76 0-81-5-81-79 0-114 59-171 177-171 50 0 75-8 173-54 201-96 217-128 129-260-50-76-50-76-54-188-2-62-6-147-10-188l-7-75 63-46c79-56 113-71 145-63 28 7 129-38 138-61 13-34-11-62-63-75-54-13-53-11-66-91-9-61 28-145 92-205 46-44 62-53 106-58 56-8 86-24 124-65 43-47 131-186 204-325 85-159 140-234 304-415s156-163 120-269c-27-78-30-98-28-192 2-80-1-110-12-124-14-19-16-18-51 22-19 23-77 77-127 119-51 43-146 125-212 183-109 96-171 145-262 208-49 34-182 102-199 102-34 0-94 44-165 122-42 46-94 93-117 106-37 20-42 21-56 6-20-20-21-58 0-75 9-7 30-33 47-58 44-65 111-148 168-208 28-28 61-73 75-99 23-43 25-56 22-147-3-100-3-100 37-131 22-17 60-50 84-73 25-24 49-43 54-43 4 0 28-14 52-30 31-21 45-38 47-58s12-31 40-44c30-14 214-179 307-275 26-28 27-26-34-122-57-90-55-149 11-371 34-110 60-161 131-251 86-109 129-176 159-249 50-117 198-343 337-512 38-46 113-158 168-249s129-201 166-245c36-43 80-101 98-129 17-27 48-76 69-108 35-56 36-58 21-87-10-19-21-28-28-24-68 39-233 145-274 177-29 21-86 84-127 138-114 150-126 171-126 229 0 28-7 65-16 83s-92 142-183 277c-173 254-252 350-289 350-38 0-98-100-180-301-74-183-86-230-78-313 9-100 35-145 294-513 89-128 206-262 289-333 38-32 75-81 130-174 54-88 93-141 126-169 29-24 58-62 72-92 34-71 84-126 141-154 86-42 116-80 127-161 13-93 27-120 130-242 203-241 233-291 258-429 12-71 31-129 65-202 25-56 73-165 106-242 84-197 110-250 169-341 90-138 104-146 159-89 35 36 67 44 88 23 19-19 14-91-13-175-35-110-33-124 28-217 28-45 77-130 108-191 68-134 88-149 189-140 119 11 160-43 126-164-21-77-21-148 2-186 12-19 44-43 85-63 79-40 112-81 188-232 36-73 68-122 109-165 32-33 75-89 95-124 44-74 91-102 169-99 47 2 49 1 118-72 39-41 88-98 109-126 27-37 56-60 108-88 39-20 78-48 86-60 9-13 28-63 43-112 45-144 99-211 277-346 33-25 110-90 171-144 183-163 234-207 344-294 198-158 331-301 395-428 22-43 57-89 89-120 53-50 53-50 97-41 53 11 95 33 214 112 151 100 175 132 175 235 0 61-19 103-112 240-53 78-53 82-24 157 8 22 15 57 16 77 0 32 4 39 25 44 35 9 71-18 79-58 11-58 16-61 84-48 106 21 130 3 113-86-12-60 2-113 38-152 14-15 53-64 87-109 42-58 86-102 146-147 46-35 119-96 161-135s88-73 102-77c41-10 93 2 206 50 58 24 139 54 180 66 111 34 259 90 304 115 22 12 86 41 143 65 71 30 102 48 102 60 0 21-41 60-64 60-9 0-49-22-88-50-39-27-79-50-88-50s-20-4-26-9c-5-5-28-11-51-15-39-6-44-4-57 21-24 47-51 64-116 73-63 9-72 14-125 61-16 15-68 53-115 84-47 32-104 75-127 96-36 33-49 39-87 39-24 0-60-7-81-16-41-17-65-13-65 11 0 8 29 43 65 76 36 34 65 70 65 79 0 18-68 75-180 151-61 42-69 44-135 44-67 0-70 1-91 33-47 70-48 157-2 185 19 12 32 4 197-123 116-90 133-95 221-60 28 11 61 20 73 20 19 0 122-42 292-120 84-38 155-105 199-189 40-76 115-175 146-191 29-16 72 10 121 73 71 89 74 95 56 115-36 42-77 130-77 168 0 116 162 295 264 294 64-1 100-28 181-134 42-55 90-116 109-136 36-41 59-99 76-200 12-65 53-170 120-305 41-82 73-105 176-124 91-16 140-44 274-156 247-205 500-385 539-385 23 0 61 28 61 46 0 8-18 34-40 58l-40 44 6 112 7 111-66 62c-70 65-147 177-147 214 0 29 67 85 154 129 73 36 109 41 151 22 43-19 33-52-30-98-49-36-54-44-49-68 8-34 28-50 73-58 80-12 92-27 151-182 41-105 40-132-10-186-26-29-38-49-34-60 12-30 41-16 99 50 32 37 85 86 118 111 79 58 428 233 465 233 29 0 53-21 106-93 16-21 34-41 42-44 32-12 132 94 183 196 25 47 25 77 1 221-11 71-10 119 8 237 5 30 4 60-1 70-16 30-80 94-110 109-36 19-66 85-67 146 0 46 1 47 34 53 84 16 220-47 345-160 86-78 83-80 115 55 20 82 22 85 56 97 90 31 176 9 278-71 31-25 113-77 182-116 207-119 416-269 545-390 55-52 254-210 264-210 5 0 16 11 25 25 10 14 28 30 42 35 15 6 22 15 18 21-10 18 26-4 118-72 46-33 115-82 153-108 39-27 105-75 147-107 108-82 241-179 255-188 7-4 49-20 94-36 89-33 98-31 119 20 16 40 2 62-91 137-92 74-139 165-110 212 7 11 15 9 40-10 30-22 34-22 59-9 14 9 38 39 52 67 14 29 31 52 37 52 7 1 60-21 118-49 161-75 237-100 308-100 81 0 100 14 126 92 33 99 31 97 98 54 32-21 88-61 124-87 61-45 136-78 300-132 45-15 48-14 78 6 17 12 31 25 31 28s-13 36-30 72c-31 70-68 118-216 287-50 58-147 168-214 245-171 195-221 258-274 348-54 92-75 139-81 184-4 34-4 34 26 16 17-10 83-83 147-163 179-224 608-664 857-879 244-210 245-211 282-211 32 0 73 28 73 50 0 5-64 79-142 165-79 86-174 196-213 243-38 48-96 118-127 156-60 72-117 173-162 288-25 65-34 128-18 128 5 0 39-16 77-35s112-44 164-56c145-33 262-95 391-209 130-115 184-155 240-179 129-56 356-68 483-26 41 13 90 33 108 44 30 18 33 19 58 3 62-39 235-184 517-434 157-139 246-208 266-208 7 1 65 50 127 109 115 108 115 108 98 134-9 14-80 74-158 133-94 72-144 116-151 135-6 19-60 65-176 150-214 158-263 209-200 209 46 0 327-129 653-301 61-31 133-65 161-74 48-15 52-15 96 4 26 11 51 29 57 40 9 16 6 24-21 46-17 14-52 37-78 50-48 24-77 51-67 62 6 6 176-28 208-41 18-8 49 17 49 39 0 7-27 30-60 51-56 36-83 74-66 91 4 4 37-8 74-26 46-23 90-36 141-42 43-5 81-15 92-24 22-21 48-9 82 38 41 54 41 69 0 108-40 38-154 126-252 194-31 22-126 94-211 160s-190 146-232 179c-240 182-338 284-308 321 23 28 54 15 130-50 79-69 154-105 216-105 20 0 41-6 47-13 7-6 64-71 129-142 149-166 194-209 243-230 99-43 145-68 186-98 24-19 69-51 99-72 30-20 69-51 86-67 31-29 32-30 58-13 45 30 48 47 17 97-15 24-32 62-37 84-9 35-24 50-149 146-77 59-185 140-240 180-55 39-103 76-107 82-10 14 7 19 36 12 42-10 403-262 491-343 65-59 153-133 159-133 18 0 346 185 346 195 0 12-206 187-318 269-84 62-146 129-172 184-22 46-22 58-5 207 5 42 1 63-29 138-20 48-36 95-36 103 0 26 29 26 82 0 53-27 74-31 102-20 37 14 15 43-76 105-51 34-118 81-148 104s-66 48-80 55c-35 18-256 185-307 232-24 21-46 38-50 38-14 1-143 127-143 140 0 7-24 36-54 64-29 28-57 59-63 69-10 19-62 81-134 161-26 28-54 65-63 83-8 17-46 65-83 106-38 40-76 87-86 103-9 16-26 44-38 61-11 18-18 37-14 43s30 29 58 52c56 43 76 71 77 103 0 13-50 74-130 160-140 150-204 250-183 283 16 27 101 53 159 48 69-6 118-33 182-100 29-31 83-75 120-100 62-41 83-63 168-183 18-25 42-56 55-70 44-47 222-203 233-203 6 0 21 16 34 34 18 27 21 39 13 54-14 27-85 89-110 97-28 8-27 42 2 77 22 28 22 28 69 12 45-15 48-19 78-89 16-41 34-101 38-134 5-34 11-64 15-67 11-11 48 8 108 56 54 43 63 48 85 38 13-6 24-15 24-20 0-14 82-9 168 12 46 11 88 20 93 20 12 0 29-41 69-165 42-130 65-168 163-274 45-48 112-122 149-164 81-90 124-113 288-152 110-27 117-30 157-74 95-103 135-137 190-160 95-40 158-93 192-161 16-33 29-72 29-87-2-65 45-115 143-151 47-17 60-19 74-8 16 11 16 19 2 107-9 52-21 146-27 210l-12 116-120 114c-66 62-161 161-211 219-88 102-350 366-394 396-21 15-101 20-178 12-27-3-32 2-53 43-24 46-24 46-5 86 25 51 18 70-55 148-31 34-90 98-130 143-99 111-149 150-211 165-51 12-51 12-81 94-39 109-60 148-118 225-26 34-63 86-82 113-18 28-45 64-60 81-14 16-32 55-38 85-15 62-41 97-94 121-32 15-37 23-44 63-6 44-9 47-58 69-60 27-78 51-111 147-18 53-36 84-74 124-28 30-51 59-51 66 0 6 24 42 54 78 29 36 86 118 126 181 74 118 144 201 192 226 35 18 101 18 138-1 39-20 153-99 218-152 29-23 87-63 130-88 135-80 167-108 181-155 22-73 144-180 206-180 25 0 78-31 95-54 55-79 178-183 204-173 34 13 30 54-10 109-82 115-121 166-175 228-86 100-99 131-99 247v98l-77 72c-43 40-83 73-89 73-7 0-29 18-50 41-22 22-54 55-73 72-227 210-311 300-311 335 0 14 42 16 88 2 29-8 33-7 28 6-3 9-6 30-6 48 0 25-15 51-64 112-56 69-71 82-125 103-34 13-76 24-94 24-49 0-97 42-193 168-126 167-171 209-222 209-37 0-41 18-21 91 25 89 24 97-7 111-14 7-32 25-40 40-17 34-40 35-96 7l-41-21 7 56c5 44 3 56-8 56-18 0-30 30-17 43 6 6 32 22 58 36 31 17 49 34 51 48 2 13-18 53-52 103-65 97-82 140-66 170 6 11 14 20 18 20s29-41 57-90c27-50 54-90 59-90s20 10 33 22 24 20 26 17c2-2 17-40 34-84 25-64 36-81 58-88 36-12 73 5 81 39 13 49-70 314-98 314-15 0 2 102 27 160 13 30 28 81 35 112 11 58 11 58-29 116-23 32-41 63-41 69 0 7-6 16-14 20-7 4-27 33-44 63s-54 82-82 115-67 84-86 113c-19 28-60 79-90 112l-56 59 17 57c9 31 14 68 10 82-3 14-53 74-111 133-57 59-105 115-105 125-4 60 8 79 44 70 28-7 353-328 434-428 30-38 60-68 67-68 8 0 33-10 55-22 38-20 46-21 99-10 32 7 70 12 85 12 30 0 33-8 40-107 3-34 12-72 21-85 9-12 16-32 16-43 0-14 16-32 44-52 49-35 73-90 61-143-5-21 0-34 18-54 24-26 24-26 58-3 18 12 41 37 52 54 19 33 19 33-11 95-17 35-40 99-51 143-26 108-38 135-56 135-16 0-36 39-28 54 3 4 0 12-7 16s-16 25-21 46c-21 100-25 109-46 112-15 2-33 30-71 106-71 145-210 360-317 491-23 28-63 86-90 130s-59 93-72 108c-13 16-23 32-23 36s30 49 66 100c112 157 130 225 113 434-16 195-46 250-142 262-54 7-59 9-81 49-13 22-32 65-43 95-10 29-28 64-40 77s-27 32-33 41c-10 16-10 16-5-3 3-13-1-26-10-34-28-23-103 35-300 234-227 231-376 371-555 526-129 111-157 136-305 265-415 365-768 797-963 1180-94 185-113 211-167 229-27 9-49 26-67 53-15 22-58 62-95 90-109 79-193 153-213 185-10 16-18 47-18 70-1 31-10 51-42 93-23 29-53 58-68 63-35 12-131 88-140 111-4 10-17 31-29 47-36 46-73 104-73 114 0 16-71 90-101 106-16 8-38 14-49 14-13 0-57 32-108 79-48 44-101 90-119 103-90 65-172 140-228 205-60 70-75 102-81 168-2 27-34 65-54 65-8 0-135-83-197-130-35-25-30-26-104 15-23 13-31 12-82-9-32-13-60-26-63-29-15-14 54-97 154-183 33-29 38-42 49-125 5-41 3-48-18-63-25-17-59-22-59-7 0 5-26 38-57 73-88 98-183 238-183 269 0 16-45 75-86 114-27 26-70 94-110 175-35 73-58 103-120 162-95 91-130 113-206 128-51 10-63 9-84-5-13-8-24-21-24-29 0-7 25-36 56-65 48-44 55-53 44-67-11-12-11-15 0-12 16 4 26-30 12-44-8-8-45 27-169 159-26 27-68 30-101 7-20-14-22-23-20-83 1-37-2-72-6-79-25-41 24-105 307-399 56-57 59-63 43-78-9-9-16-23-16-31 0-23 28-84 38-84 12 0 126-139 146-178 9-17 23-35 32-40 15-8 15-11 0-34-9-14-27-31-41-38-22-12-29-10-66 15-52 37-103 95-177 203-73 106-139 176-214 225-31 21-100 86-154 145s-120 130-146 157c-49 51-61 64-208 224-80 87-110 110-295 229-48 31-146 122-311 288-206 208-246 243-278 249-21 4-48 3-60-3-36-16-94-93-96-127-2-36 9-75 21-75 5 0 9-6 9-14 0-17 50-58 225-181 185-131 276-221 300-298 10-32 38-88 63-125 38-57 49-83 68-175 27-127 48-176 98-236 21-24 44-58 53-75s36-55 60-84c23-30 43-59 43-66s16-27 35-46c41-40 65-105 65-177 0-113 26-150 249-344 46-41 120-113 163-161 77-84 79-87 64-110-8-13-28-31-45-41-29-17-30-17-59 8-17 14-53 56-80 93-51 68-420 429-502 491-25 19-61 51-81 72-47 50-94 59-157 31-58-26-112-37-112-24 0 11 38 46 80 73 24 16 24 16-74 125-110 123-167 188-252 288-116 135-126 144-178 151-63 10-100-6-90-38 11-36 53-84 105-122 62-44 99-100 104-156 2-24 6-54 10-66 11-35-28-40-76-8-22 14-50 25-62 23-37-5-22-47 40-110 56-56 56-56 51-109-9-94 10-127 110-191 60-39 54-68-17-68-34 0-152 61-205 106-233 195-313 226-261 101 10-25 33-46 79-76 58-36 116-94 116-116 0-4 11-23 26-42 30-39 25-53-20-53-35 0-67 31-128 126-23 36-32 42-74 48-26 3-63 6-83 6-51 0-133 43-173 91-18 22-67 77-109 122s-116 132-164 192c-49 61-134 164-190 230s-126 152-157 190c-59 75-110 110-210 141-57 17-57 17-125-8-37-15-89-34-115-43l-47-17 42-42c24-22 63-56 88-75 65-50 84-78 68-98-11-12-26-14-80-9-80 8-159-11-202-50-34-29-30-38 42-87 71-48 75-59 35-107-46-54-117-75-307-90-132-11-307-40-429-71-113-29-147-27-202 11-51 35-62 50-139 189-29 52-59 99-68 105-13 7-29 2-65-22-27-17-62-34-77-38-16-3-31-13-34-20-8-22-22-17-69 24-23 21-71 54-105 72-55 29-68 32-121 27-96-9-106-30-61-125 17-35 57-88 110-143 46-47 83-93 83-101 0-22 18-54 66-118 43-57 95-107 209-200 37-30 84-70 103-89 53-49 72-53 121-26l41 24 17-32c9-18 26-49 36-70 11-21 64-86 118-145 73-80 119-142 180-245 46-77 104-166 131-200 32-39 47-66 42-76-3-9-7-20-8-26-1-5-4-14-8-20-24-41 31-148 141-270 83-92 190-251 271-400 121-223 223-365 261-365 7 0 27-11 46-26 42-32 47-85 9-109-22-15-27-15-53-1-36 19-209 196-255 261-20 28-64 106-98 175-129 258-192 339-304 389-107 49-176 103-256 203-170 213-309 346-620 594-178 142-357 312-443 422-27 34-77 109-112 167-126 208-249 358-390 478-106 89-365 375-450 497-22 30-65 87-96 125-54 65-109 163-109 193 0 29-43 112-66 127-29 19-52 19-97 0-51-21-73-8-137 86-110 161-108 159-139 159-15 0-62-16-104-35-84-39-142-45-187-19-35 21-54 14-75-26-21-41-13-66 63-184 32-50 87-149 122-221 35-71 86-164 114-205 69-102 71-106 41-136-25-25-25-25-56-4-18 14-47 56-74 109-34 69-58 101-111 150-37 33-71 61-75 61-5 0-17 17-28 38-44 85-94 112-204 112-53 0-62-3-92-33-43-43-52-91-31-153 9-26 16-58 16-70 0-35 48-84 222-221 161-128 181-150 193-215 13-69-62-106-104-52-12 15-21 31-21 37 0 24-56 90-91 107-25 13-53 43-84 90-25 38-50 72-55 75-12 7-40-48-40-79 0-46 56-150 114-211 32-33 69-76 84-95 104-138 453-482 607-599 16-12 67-56 112-98 46-41 95-84 108-95 49-38 56-67 46-175-10-114-5-133 63-221 43-57 114-119 246-216 58-42 135-79 196-93 11-3 40-21 63-41 36-32 43-45 52-97 18-99 82-217 108-201 5 3 36-17 69-44 57-49 96-101 140-185 12-22 35-53 52-70 40-38 87-135 100-205 10-53 9-58-26-127l-37-71-81 71c-190 168-385 335-441 380-147 116-184 147-268 227-98 94-187 200-325 391-51 70-122 158-160 196-68 70-169 143-198 143-23 0-72-28-83-47-18-33-57-1-97 79-20 40-48 88-61 107-29 37-118 84-146 75-27-9-64 31-98 105-42 92-67 121-197 226-65 52-135 109-157 127-102 84-249 219-463 427-238 231-304 282-410 319-115 40-369 143-431 174-36 18-98 59-139 90-41 32-77 58-81 58-3 0-22 15-41 33s-105 95-190 172c-260 235-457 420-595 560-75 76-141 125-195 143-45 16-43 17-83-24zm4003-1886c52-62 142-164 199-228 130-143 143-171 140-290-2-50-6-90-10-90-21 0-241 248-297 336-98 152-162 267-162 289 0 29 20 95 28 95 4 0 50-51 102-112zm-4528-1454c67-59 164-144 213-188 50-45 133-118 185-161 90-76 264-245 340-331 19-21 76-84 125-139 131-144 264-304 280-336 13-24 13-30-1-43-8-9-21-16-27-16-24 0-74 39-162 126-50 49-144 139-209 199-145 134-346 349-475 508-53 66-146 171-207 235-122 127-214 233-214 245 0 23 41-4 152-99zm4666-771c81-82 181-179 222-218 78-74 110-118 110-150 0-23-18-45-36-45-7 0-84 82-171 181-322 370-329 379-288 379 8 0 81-66 163-147zm1189 35c23-25 53-81 53-98 0-19-68-42-90-30-42 22-51 73-23 121 21 35 33 36 60 7zm10013-1469c0-11-3-11-24-3-23 9-20 23 4 17 11-3 20-9 20-14zM2217 7820c34-20 49-42 129-178 27-46 61-91 76-100 48-28 60-85 34-160-15-41-15-41 20-71 80-71 165-89 237-51 81 44 152 9 207-98 33-68 29-109-23-217-26-52-51-95-57-95-7 0-90 60-186 133-214 161-264 196-286 196-23 1-22-7 2-69 11-28 20-53 20-55 0-10-49-4-95 12-67 22-120 80-178 190-76 145-80 250-18 473 20 71 46 110 75 110 6 0 25-9 43-20zm15026-2695c21-15 37-34 37-45 0-21-56-90-73-90-25 0-97 34-97 45 0 15 77 115 88 115 4 0 24-11 45-25zm774-3125c199-167 242-207 242-221 2-56-112-12-210 81-40 39-76 70-80 70s-22 18-39 40c-26 33-30 43-20 55 21 25 57 17 107-25zm-5438-432c30-23 137-123 236-222 179-179 309-336 340-409 15-36 15-37-7-37-22-1-22-1-4-15 11-8 17-17 14-20-6-6-33 15-158 124-268 235-435 391-464 436-56 83-70 155-30 155 10 0 14 5 10 15-9 23 3 18 63-27zM9666 14921c-3-5 8-27 24-50 17-22 30-49 30-59 0-11 8-26 18-35 9-9 26-33 37-54 40-76 82-133 200-268 145-167 143-165 160-165 45 0 21 168-29 209-9 8-16 19-16 26 0 6-10 20-21 31-12 10-33 37-47 59-27 43-93 119-208 240-62 67-74 75-107 75-19 0-38-4-41-9zm8699-12528c11-72 43-105 166-168l109-56 35 27c19 14 35 28 35 29 0 2-42 35-92 73-105 80-210 142-240 142-18 0-20-4-13-47z"/>
  </g>
 </svg>
 <svg width="1976" height="1636" version="1.0" viewBox="0 0 1976 1636">
  <g transform="matrix(.1 0 0 -.1 0 1636)" fill="#010102">
   <path d="M2053 16198c-51-58-169-281-192-363-17-62-14-142 5-149 9-3 19-4 24-1 4 3 13-7 18-23 12-32 55-82 70-82 6 0 28-17 49-37 46-47 245-187 388-273 145-87 441-289 453-309 7-11 19-21 27-21s57-42 108-92c111-110 165-197 182-298 11-66 62-160 87-160 5 0 45-33 87-74 70-68 220-166 254-166 27 0 159-95 243-175 11-11 47-44 80-74 228-208 324-305 324-327 0-32-16-39-48-18-45 29-182 134-278 213-246 203-440 349-511 384-39 19-43 19-67 3-14-9-26-24-26-34 0-9 63-81 140-160 263-271 453-482 525-585 64-92 205-266 276-342 95-101 269-323 290-370 25-55 24-116-2-149-19-24-21-37-17-102 4-66 9-81 44-132 21-31 117-136 214-232 96-96 191-192 210-213l35-38-44-40c-37-35-47-39-75-33-78 17-137 60-305 225-86 84-410 365-523 453-371 290-421 322-492 314-41-5-149-49-159-65-10-15 119-147 316-325 293-264 590-560 585-584-6-35-42-27-104 23-270 218-687 622-896 870-77 92-104 131-95 140 3 2 26-3 51-11 60-21 70-20 136 5 77 29 130 60 130 77 0 14-29 43-62 62-14 9-25 2-58-31-25-26-45-39-55-35-18 7-76 96-108 168-30 65-70 103-162 153-84 46-100 58-281 205-77 63-179 145-225 181-46 37-122 102-169 146s-94 83-105 87c-12 3-47 7-80 7-52 2-61-1-82-25-30-36-29-56 7-113 35-56 79-96 170-158 86-59 152-122 235-225 37-47 83-100 102-119 39-39 72-99 84-151 7-28 4-41-14-67-12-18-27-33-32-33-6 0-34 21-63 46-28 25-65 55-81 67s-49 37-73 55c-35 28-49 33-77 28-34-5-91-50-91-70 0-6 20-25 43-43 59-45 232-216 259-256 13-19 36-53 52-76 28-40 28-43 12-59s-20-15-80 17c-63 33-86 34-86 5 0-15 66-94 191-228 171-184 269-301 269-321 0-12-6-29-13-39-12-17-18-17-53-6-21 7-50 20-64 29-41 26-173 123-201 148-45 41-65 38-89-15-33-73-36-77-57-80-26-4-95 73-133 149-36 69-104 132-201 183-105 55-203 120-257 169-26 24-72 63-102 87-30 25-71 60-90 80-49 49-245 213-365 305-55 43-113 89-130 104-84 75-164 113-191 90-36-30-8-76 209-337 26-31 59-75 74-97s48-65 73-96c25-30 56-71 70-89s30-38 35-44c6-6 35-40 65-76 52-61 190-214 295-325 117-124 157-182 180-262 7-25-19-83-38-83-16 0-78 42-147 99-71 60-377 341-504 465-55 53-104 96-109 96-6 0-31 18-56 41s-73 65-106 94c-83 72-219 196-350 316-187 172-217 186-300 134-29-17-55-24-92-25-75 0-87-16-122-155-10-39-24-81-30-94-19-35-82-101-96-101-23 0-65-41-65-64 0-37 20-85 38-90 57-18 203-36 247-31 43 6 53 4 69-14 17-18 18-31 11-125-9-130-20-146-100-146-70 0-129-23-144-57-7-14-16-60-21-101-6-42-14-80-18-84s-36-11-70-14l-62-7v-60c0-114 65-174 192-176 48-1 76-10 170-56 62-31 128-69 146-87 30-27 33-36 28-67-3-19-27-67-54-107l-49-73-7-166c-4-91-9-172-13-180-6-16 30-54 95-98 29-21 60-31 106-37 67-8 121-32 139-62 19-29-6-65-55-78-56-15-68-32-68-99 0-70 35-148 86-193s71-56 128-63c88-13 162-105 321-405 73-138 141-232 255-354 87-94 162-182 177-211 9-15 5-36-19-100-30-83-38-165-24-250 6-32 3-45-12-63-25-28-36-28-52 3-16 30-387 354-513 449-121 90-229 152-297 172-47 13-65 26-131 94-132 139-198 179-214 130-3-11-3-26 2-33 13-21 107-151 113-157 3-3 25-30 49-60 23-30 65-79 93-107 27-29 46-53 43-53-4 0 0-11 9-25 12-18 16-49 16-129v-104l58-49c31-26 63-55 69-65 7-9 33-26 58-38 50-24 95-72 95-101 0-10 6-19 13-19 21 0 68-38 212-174 74-71 135-135 135-143s-11-29-24-46c-32-42-76-136-76-164 0-21 21-115 54-238 24-90 76-193 132-260 72-86 125-169 164-255 38-85 79-157 121-215 16-22 51-74 79-115 27-41 74-104 104-140 93-109 100-120 199-285 52-88 126-197 164-243 88-108 91-111 152-215 49-82 52-91 41-118-7-16-18-29-25-29-6 0-38 17-71 38-32 21-92 60-132 85-100 65-142 105-221 211-114 154-114 154-112 203 2 54-20 105-84 198-27 39-96 140-153 225-211 312-246 338-311 238-40-61-115-224-161-353-27-72-33-105-33-168-1-73 2-83 45-165 25-48 75-130 111-182 142-205 163-235 204-289 45-60 225-249 259-272 11-8 52-68 91-134 46-77 90-138 126-172 30-28 66-76 80-106 32-65 88-124 142-148 47-21 88-55 103-84 5-11 15-51 21-89 7-38 19-83 28-100s69-93 133-169c164-191 197-248 225-390 16-81 37-143 75-227 29-63 68-151 87-195 104-236 125-280 176-357 53-80 91-128 104-128 3 0 25 18 49 40s50 40 58 40 24-12 36-27c26-33 23-67-16-186-16-48-24-90-21-107 4-15 27-58 53-94 25-37 72-117 103-178 72-142 85-152 191-149 78 1 82 0 111-28 34-35 37-71 13-165-31-118-7-175 93-222 71-34 110-81 180-220 46-88 77-135 122-181 33-35 72-85 85-112 14-26 39-60 56-75 27-22 41-26 96-26 64 0 64 0 133-72 38-40 87-96 109-124 46-59 80-86 140-109 50-20 71-53 102-155 39-135 105-220 260-337 46-35 124-101 173-146 108-99 166-148 322-274 227-182 372-338 438-469 38-75 117-154 155-154 42 0 110 34 233 115 145 97 171 128 177 214 3 49-1 64-31 121-19 36-58 101-87 144-52 79-52 79-36 114 9 19 19 55 23 81 8 65 19 81 53 81 36 0 57-20 70-71l11-41 69 7c112 11 134-7 118-97-11-58 3-117 33-144 12-10 52-60 90-110 47-64 88-106 136-140 37-27 109-85 158-130 53-48 103-84 120-88 37-7 104 11 210 56 44 19 145 56 225 82s186 67 235 91c50 23 125 57 168 75s81 39 84 47c7 17-34 63-57 63-9 0-47-22-86-49-40-28-96-57-134-69-66-20-90-19-90 2 0 7-15 26-32 43-24 22-47 33-83 38-60 8-76 16-135 64-25 21-72 56-106 78-33 23-84 62-114 87-64 55-105 65-169 42s-81-21-81 8c0 16 17 38 55 71 78 66 84 80 49 116-16 17-76 62-133 100-105 71-105 71-168 64-62-7-62-7-82 27-12 18-26 56-32 85-25 109 37 149 116 76 39-36 184-147 211-161 24-13 86-6 126 14 42 21 103 17 158-11 27-14 84-39 127-56 152-60 223-117 282-228 53-97 134-191 164-191 12 0 33 11 47 23 30 27 110 126 110 137 0 4-20 43-45 86-41 72-45 83-39 124 13 89 121 233 198 265 49 21 115 19 153-5 18-10 71-71 119-135 47-63 89-115 93-115 22 0 63-112 76-205 6-44 108-296 142-351 18-29 88-61 147-68 78-9 141-46 281-160 247-203 396-312 494-362 35-18 48-20 67-12 35 16 30 43-17 96-34 39-40 52-35 77 28 144 15 206-53 251-49 32-141 166-141 206 0 34 44 77 125 122 85 48 129 59 171 41 19-8 37-21 40-30 8-19-25-57-73-86-60-37-38-97 40-113 15-3 38-8 52-11 28-6 46-38 94-160 50-130 50-136 2-188-23-24-41-52-41-61 0-32 38-15 84 38 71 83 165 148 349 242 266 135 268 135 337 35 29-44 47-61 63-61 38 1 113 80 167 177 21 38 22 48 15 125-10 104-10 274 0 353 7 60 7 60-38 105-24 25-63 61-85 80-33 29-42 45-52 95-16 75-8 89 54 93 87 6 186-39 300-135 94-80 94-79 106-67 6 6 18 40 26 75s16 74 19 87c8 31 60 52 132 52 62 0 124-28 188-85 39-35 241-155 260-155 8 0 15-4 15-10 0-5 6-10 14-10s16-3 18-8c2-4 46-36 98-72 92-62 106-73 153-114 12-10 38-30 57-45 19-14 37-28 40-31 8-8 144-126 165-143 105-85 162-127 172-127 7 0 23 16 35 35 37 55 58 54 146-13 42-32 109-80 147-107 87-60 236-170 335-245 90-68 100-74 200-110l78-28 18 34c26 48 13 73-76 147-83 68-120 127-120 189 0 31 4 38 19 38 10 0 24-7 31-15s21-15 32-15c27 0 84 64 92 101 3 16 10 29 16 29s55-21 108-46c214-101 302-125 380-105 37 10 43 16 61 67 12 30 21 60 21 67s6 21 13 31c12 16 19 13 97-40 47-31 102-70 122-86 40-31 139-73 254-108 68-21 73-21 98-5 32 21 32 32 1 102-37 79-42 86-458 560-196 224-287 359-327 482-11 35-20 65-20 68 0 2 13-3 28-11 33-17 100-90 208-226 65-83 349-384 584-620 115-115 407-369 467-407 36-22 75-22 100-1 22 18 15 44-24 84-96 102-292 323-328 370-22 28-68 86-103 128-68 81-136 200-177 309-25 69-33 127-15 127 5 0 40-16 77-35 37-20 115-47 172-61 161-39 282-108 430-244 166-152 289-199 527-200 76 0 200 34 261 71 30 19 34 19 62 5 31-17 154-115 287-231 44-38 92-79 105-89s51-44 85-75c124-114 209-187 255-220 48-33 48-33 76-11 57 44 203 191 203 204 0 7-9 22-20 34-19 20-185 151-250 197-16 11-35 34-44 52-16 34-21 38-221 187-77 57-153 117-169 134-26 28-27 31-9 40 13 8 33 5 73-9 77-27 196-76 255-106 28-14 153-77 280-141 196-100 236-117 276-117 51 0 101 28 107 58 3 16-8 25-133 99-85 51-52 60 100 27 52-11 100-17 105-14 25 15 8 46-47 82-67 45-82 65-64 86 11 14 22 11 94-24 65-31 92-39 138-39 41 0 63-5 82-20 25-20 25-20 66 26 23 26 41 55 41 64 0 25-49 70-184 168-66 48-162 121-215 163-53 41-163 126-246 189-347 263-429 348-375 392 12 10 26 18 30 18s44-30 88-68c82-69 151-103 221-107 31-2 46-13 109-81 41-43 93-104 117-134 71-88 150-152 233-186 70-30 176-99 307-201 30-24 58-43 63-43 12 0 52 44 52 57 0 5-13 30-30 54-16 24-30 55-30 70 0 30-33 63-145 144-44 32-105 79-136 104s-95 74-143 109c-81 58-98 82-59 82 51 0 352-211 583-409l94-80 83 44c46 25 121 66 168 91s85 52 85 59c0 8-21 32-47 54-27 22-79 66-118 98-38 33-100 80-136 106-132 93-207 192-211 275 0 21 7 62 17 90 21 58 22 51-38 205-28 72-29 79-14 94s20 15 64-9c67-36 98-41 117-22 9 8 14 20 11 24-3 5-56 43-117 86-164 112-443 315-504 366-100 83-191 168-200 186-6 12-35 48-65 80s-70 78-89 101-56 65-81 94c-26 28-59 72-74 97-16 25-54 72-85 105-64 67-140 180-140 206 0 10 27 39 60 64s60 47 60 48 4 16 9 34c10 36 16 28-123 173-138 144-207 253-185 293 14 24 134 59 178 51 64-12 105-35 157-88 61-61 73-71 141-115 46-30 116-109 173-195 41-62 250-256 276-256 16 0 44 39 44 61 0 15-70 85-120 119-23 16-23 16-2 57 23 44 38 54 62 43 70-32 75-37 103-104 16-37 33-95 38-129 6-33 12-64 15-69 7-12 55 16 109 62 25 22 51 40 57 40s26-9 44-21c38-23 61-22 194 12 86 21 91 19 112-56 54-197 96-275 209-385 25-25 67-72 94-105 101-126 170-166 360-204 67-14 150-66 164-104 16-39 86-95 154-122 78-32 182-120 192-164 3-16 13-32 21-35 11-4 13-15 9-40-14-71 32-123 143-162 46-16 54-16 67-3s13 23 0 84c-8 39-20 129-27 200-13 151-9 143-164 285-51 47-140 139-197 205-147 168-365 382-401 391-15 3-63 4-107 0-74-6-79-5-91 16-7 13-11 26-10 30 1 3-5 12-13 18-17 14-20 37-4 42 17 6 29 79 17 102-13 23-110 130-242 263-85 88-122 112-181 119-11 1-23 3-26 3-4 1-9 11-12 23-26 117-138 311-269 465-23 27-40 59-44 82-9 58-45 114-85 133-46 21-57 35-61 78-3 30-9 38-43 53-71 33-85 53-130 180-11 30-35 66-66 96-27 27-49 57-49 68s26 54 58 94c32 41 88 121 124 179 161 254 231 285 396 177 42-28 97-67 122-87s78-58 118-84c220-141 211-133 222-174 20-78 87-147 165-172 22-7 53-18 69-23 16-6 78-60 137-119 58-59 114-108 123-108 21 0 43 47 30 65-83 119-155 213-205 270-86 96-110 150-109 245 1 41 1 82 1 92-1 9-20 34-43 55s-55 51-71 66-46 36-66 47c-21 10-49 37-64 58-14 22-43 53-64 68-56 41-275 265-297 304l-19 33 73-7 73-6-5 38c-4 27-23 62-63 113-48 63-66 78-118 101-34 15-78 27-97 28-19 0-49 9-67 19-29 18-52 44-151 175-110 144-156 186-203 186-15 0-30 4-34 10-3 5 3 44 15 87l20 78-35 30c-19 17-35 35-35 41 0 22-32 24-77 4-25-11-47-20-49-20s-4 25-4 55c0 42-3 55-15 55-8 0-15 9-15 19 0 22 34 52 79 71 51 21 48 41-18 141-69 104-83 149-56 179 22 24 35 26 35 5s31-80 70-134c31-42 32-43 46-22 20 27 41 27 49-1 6-21 35-87 55-128 19-40 110-13 110 32 0 57-73 263-105 294-16 17-3 102 26 163 12 25 26 73 32 107 11 61 11 61-51 155-33 52-78 119-99 150-64 96-209 282-247 318-40 38-43 58-21 120 20 57 8 81-80 173-127 133-136 146-133 186 3 39 19 49 62 38 22-5 333-311 393-386 46-58 77-84 129-110 27-14 52-29 56-34 4-6 33-2 70 8 95 26 114 16 120-66 3-39 15-85 31-118 14-30 24-57 21-61-2-4 8-13 24-20 44-19 65-56 71-123 3-34 13-71 22-84 16-23 18-23 48-8 32 17 61 61 61 93 0 10-9 32-19 49-19 31-29 60-71 210-14 51-25 71-35 70-19-1-60 97-70 167-5 38-11 50-30 57-18 7-40 41-80 120-66 131-153 270-249 399-39 51-100 137-136 190s-75 110-87 125c-13 16-23 36-23 45s33 63 74 121c93 133 106 172 106 314 0 138-14 235-40 286-18 36-24 40-57 40-73 0-141 75-182 201-6 20-23 46-36 59-22 20-25 21-31 6-19-50-110 20-386 297-227 229-358 350-543 507-43 36-94 81-114 100s-46 42-58 51c-104 72-482 458-642 654-188 231-297 396-406 617-74 148-101 183-157 200-29 9-45 23-68 60-16 26-34 48-39 48-6 0-54 35-108 78-101 81-172 153-174 175 0 6-3 21-5 32-3 11-5 30-6 42-1 30-81 110-152 153-50 30-69 51-132 146-41 61-74 116-74 121 0 11-62 63-97 81-12 7-33 12-46 12-14 0-31 7-38 17-19 22-175 158-246 213-142 111-267 269-249 317 3 7 0 24-6 38-19 41-51 31-165-50-57-41-107-75-110-75s-18 11-35 25c-16 14-40 25-52 25-28 0-116-37-116-49 0-19 82-120 120-146 60-42 83-80 86-139 3-63-16-96-54-96-21 1-42 18-97 81-38 45-81 98-94 118-14 20-38 55-54 79s-33 58-38 77-30 57-55 84c-68 74-98 119-143 214-36 73-54 96-124 160-100 90-129 106-210 113-56 5-63 4-75-15-11-19-7-26 39-69 57-54 87-118 66-139-10-10-32 9-106 87-97 103-117 114-157 85-18-12-22-28-26-106-7-110 0-134 55-191 23-24 99-105 170-181 115-124 145-167 117-167-5 0-10-16-10-36 0-27 7-43 31-65 47-44 149-171 149-186 0-7 9-18 20-25s20-20 20-28c0-18-60-80-77-80-24 0-164 144-221 227-80 117-131 174-194 216-61 40-118 95-273 261-60 65-126 134-145 155s-77 82-127 138c-70 75-114 113-180 154-48 29-117 75-153 102-58 45-273 255-433 425-70 73-118 93-167 67-40-21-80-86-80-130 0-70 49-118 309-301 124-87 223-188 246-249 10-27 37-79 59-115 54-85 63-107 81-215 18-101 43-162 91-215 17-19 41-53 52-76 11-22 27-46 36-53 8-7 29-36 47-64 18-29 42-61 54-72 38-35 56-85 65-179 5-51 14-105 20-120 13-36 142-163 207-203 31-20 169-164 222-231 18-23 31-49 28-56-3-8-22-26-42-41-48-37-67-28-143 72-61 80-438 451-526 518-27 21-60 50-73 66-13 15-39 33-58 39-29 10-41 8-79-9-46-20-136-38-136-27 0 12 36 48 68 67 17 12 32 24 32 27 0 4-32 41-71 82-40 41-96 104-124 140-29 36-79 92-111 125s-72 79-91 103c-41 54-53 66-80 80-27 15-110 16-118 2-8-13 62-118 88-132 32-17 98-80 111-107 7-14 16-56 20-93 7-68 7-68-26-68-18 0-46 9-63 20-16 11-38 20-47 20-35 0-18-39 43-100 62-61 62-61 55-116-9-81 28-150 104-189 17-9 31-19 31-23 8-44 6-47-36-50-32-2-59 6-121 37-43 22-92 53-109 68-16 16-59 51-95 77-36 27-81 63-102 79-38 30-75 33-70 5 9-55 35-88 98-129 50-33 77-60 110-110 47-71 53-93 28-103-50-19-79 2-150 110-35 55-52 64-126 64-72 0-148 33-201 88-136 140-302 331-349 400-8 12-31 39-49 60-19 20-73 84-119 141-47 57-107 131-134 164-37 45-64 66-113 89-95 45-131 46-238 6-97-37-112-54-73-86 13-11 52-44 88-74 102-85 91-135-26-110-59 13-128-4-179-42-34-26-35-29-20-46 9-9 38-33 65-51 28-19 50-42 50-51 0-10-18-36-39-57-52-52-105-67-300-87-177-17-304-37-407-64-134-34-158-35-207-6-61 35-93 74-160 198-33 59-65 109-72 112-7 2-38-11-69-30s-62-34-68-34c-7 0-22-10-35-22-23-22-23-22-66 19-23 23-66 56-96 74-46 28-63 32-113 31-86-2-98-8-98-45 0-55 50-136 134-218 43-42 79-85 80-95 3-42 44-101 126-183 78-78 120-116 219-198 19-15 45-38 58-50 27-28 43-29 85-3 18 11 38 20 44 20s28-34 49-76c27-55 61-101 120-163 107-110 108-112 198-266 42-72 97-154 122-184 25-29 45-56 45-60s-5-33-11-64c-11-53-10-60 14-109 14-29 69-103 122-163 97-111 188-248 288-431 88-162 165-280 194-300 16-11 46-28 68-40 51-26 71-64 55-104-8-19-22-31-41-35-24-6-37 0-77 33-140 118-230 237-332 442-40 80-90 170-111 201-41 62-133 149-155 149s-87 36-147 81c-30 22-96 90-146 150-187 223-299 330-585 558-305 243-446 391-576 606-124 205-230 333-398 485-116 104-313 322-425 470-40 52-93 121-120 153-56 69-72 98-103 191-43 125-74 149-151 120-33-13-49-14-67-6-13 6-56 57-94 114-80 116-99 138-120 138-8 0-51-16-95-36-94-43-155-48-205-18-33 19-33 19-53-6-31-39-19-87 48-193 32-50 90-155 128-232s93-175 122-219c29-43 53-84 53-92 0-18-36-54-54-54-24 0-68 54-108 133-38 77-83 130-166 195-23 18-42 39-42 45 0 7-17 32-38 56-36 42-39 43-117 51-106 11-138-2-166-65-21-46-21-46 3-131 22-80 27-89 83-142 33-31 75-68 94-82 37-27 93-71 101-80 3-3 25-21 50-40 62-47 78-67 90-109 18-64 13-87-19-101-49-20-74-10-99 40-34 69-59 99-99 118-24 11-47 34-66 67-16 28-39 60-50 73-22 23-22 23-39 2-24-30-23-48 10-127 19-49 46-88 92-138 36-38 85-96 109-127 49-66 316-341 376-388 22-17 60-50 85-73s70-62 100-87 75-63 100-86 70-63 101-90c88-77 92-86 84-214-7-106-7-110 19-154 41-70 119-149 228-231 55-41 103-75 106-76 31-3 138-47 173-71 63-42 87-77 99-146 14-83 44-146 79-163 46-24 145-110 174-153 15-22 40-63 54-90 14-28 36-58 48-68 48-38 115-189 115-261 0-27-63-157-76-157-3 0-13 8-22 19-40 45-547 475-660 560-118 88-248 235-435 493-102 140-211 255-287 302-55 34-64 37-90 26-16-6-36-20-46-31-9-10-25-19-35-19-18 0-79 72-79 94 0 6-18 38-39 72-43 68-100 104-163 104-43 0-58 16-98 104-37 80-84 134-205 231-49 40-99 81-110 91-11 11-40 35-65 54-57 44-276 246-495 458-227 220-216 213-485 318-252 98-270 105-333 141-34 19-82 51-107 72s-56 44-70 51c-13 7-56 43-95 79-134 125-190 176-218 198-66 51-501 462-557 526-48 55-147 117-185 117-20 0-39-8-52-22zm3933-1810c16-18 72-82 124-143 52-60 127-146 166-190 106-118 119-149 117-264-1-51-4-95-6-97-7-7-140 121-202 196-117 141-265 388-265 443 0 40 15 87 28 87 5 0 22-15 38-32zm-4486-1509c58-51 125-110 150-133 98-88 230-203 368-320 44-37 173-170 285-295 355-391 394-443 367-476-17-20-48-19-85 4-49 30-678 659-744 744-102 131-141 176-261 302-158 164-213 232-206 250 3 8 9 15 13 15 5 0 55-41 113-91zm4689-792c86-84 190-186 232-225 42-40 84-91 94-113 18-39 18-40-2-61-29-28-49-18-113 59-30 36-80 93-110 127s-82 93-116 131c-34 39-82 94-107 122-25 29-51 62-57 73-12 21-6 40 12 40 6 0 81-69 167-153zm1209 9c42-63 42-91 1-105-18-6-40-11-50-11-25 0-49 38-49 78 0 37 35 95 54 89 6-2 26-25 44-51zM2249 7792c25-27 62-79 81-118 19-38 59-92 88-122 46-46 52-57 52-94 0-22-5-59-12-81-12-39-11-41 22-68 85-72 166-84 243-39 31 18 41 20 75 11 57-16 84-41 121-115 26-50 32-73 28-100-6-37-71-180-95-208-17-20-12-23-240 152-154 117-231 170-249 170-8 0-6-18 9-61 27-80 19-88-66-59-83 27-138 85-202 214-69 139-71 221-12 446 35 132 81 153 157 72zm15000-2671c27-22 33-33 28-53-8-31-54-78-77-78-22 0-87 27-94 39-9 13 73 121 92 121 9 0 32-13 51-29zm772-3119c24-20 60-49 79-64 31-23 68-56 148-130 46-42 7-67-69-45-46 14-70 32-167 124-128 123-141 153-67 153 23 0 45-11 76-38zm-5432-436c91-75 337-317 402-396 30-36 56-67 59-70 16-16 90-120 103-147 18-34 23-88 8-97-5-3-37 20-72 52s-80 70-99 86c-52 42-285 251-369 331-100 95-140 164-155 269-5 38-5 38 26 32 17-3 61-30 97-60zm-2489-337c0-11-27-12-34 0-3 4-3 11 0 14 8 8 34-3 34-14zm-420 13688c0-7 11-28 24-46s30-47 37-64c7-18 16-34 19-37 4-3 29-41 55-85 58-97 86-134 184-245 140-160 149-164 136-62-6 54-67 182-87 182-4 0-16 17-27 38s-41 57-66 81c-26 24-54 55-61 69-24 47-165 182-190 182-13 0-24-6-24-13zm8689-12489c-7-84 30-129 165-199 105-54 105-54 132-33 15 11 29 24 30 30 6 18-284 214-317 214-5 0-9-6-10-12z"/>
  </g>
 </svg>
</svg>
