<?xml version="1.0" encoding="UTF-8"?>
<svg enable-background="new 0 0 122.88 106.68" version="1.1" viewBox="0 0 122.88 106.68" xml:space="preserve" xmlns="http://www.w3.org/2000/svg" xmlns:cc="http://creativecommons.org/ns#" xmlns:dc="http://purl.org/dc/elements/1.1/" xmlns:rdf="http://www.w3.org/1999/02/22-rdf-syntax-ns#"><metadata><rdf:RDF><cc:Work rdf:about=""><dc:format>image/svg+xml</dc:format><dc:type rdf:resource="http://purl.org/dc/dcmitype/StillImage"/><dc:title/></cc:Work></rdf:RDF></metadata><style type="text/css">.st0{fill-rule:evenodd;clip-rule:evenodd;}</style><g transform="matrix(-1,0,0,1,122.88,0)"><path class="st0" d="m52.4 20.33c7.64-4.44 11.36-11.8 15.79-20.33 2.26 2.44 3.48 8.44 2.98 16.83 21.29-1.39 34.78 10.58 51.71-7.42-7.28 28.11-33.56 12.14-44.54 14.59 16.95 1.92 21.76 11.28 41.28 7.96-6.72 8.09-21.59 6.45-34.11 0.75 2.21 6.08 24.83 10.01 20.22 28.16-4.36-7.49-8.45-12.09-12.29-14.08 7.91 13.68 7.29 26.15-0.09 39.78-1.63 3-3.62 5.73-6.05 8.09 3.38-7.47 5.02-14.43 3.58-20.48-1.37 5.2-26.98 55.76-13.31 14.34-27.3 26.82-53.87-0.48-77.57 18.16 7.91-37.07 50.98-22.56 66.84-39.74 3.26-3.54 4.44-8.33 3.04-11.78-4.08-10.04-18.37-7.09-23.55-0.96-3.19 4.91-9.37 10.37-14.44 4.29-0.83-0.99-1.3-2.26-1.43-3.78 2.56 1.09 5.12 1.51 7.68 0.26l-2.05-2.3c2.73-0.77 5.78 0.09 8.19-2.42l8.96-5.89c1.71-1.26-2.13-2.07-11.26-2.7-0.77 1.99-0.42 3.81 1.79 5.38-2.62 0.35-4.89-0.35-6.66-2.56-1.04 0.81-0.89 1.38 1.9 5.81-2.51 0.11-5.02-0.89-7.53-2.48-0.58 2.02 0.27 4.04 0.41 6.06-1.83-0.53-3.51-1.4-5.02-2.62-1.52-1.23-2.89-2.8-4.09-4.72-0.83-1.88-0.82-3.29-0.18-4.34 0.39-0.65 1.02-1.16 1.85-1.57 3.1-1.53 4.66-1.35 8.29-3.77 3.43-2.28 6.93-5.01 9.91-8.69 4.82-5.96 4.69-4.89 9.75-7.83zm-0.71 9.24c-1.19 0.49-1.28 1.07-2.92 1.52-0.49 0.13-1.35 0.87-1.62 1.3-0.84 1.37 2.22 2.1 3.14 0.46 0.23-0.4 1.26-2.3 1.34-2.53 0.08-0.24 0.29-0.43 0.13-0.7-0.02 0-0.03-0.06-0.07-0.05z" fill="#fffffd"/></g></svg>
